<?xml version="1.0" encoding="UTF-8" standalone="no"?><!DOCTYPE svg PUBLIC "-//W3C//DTD SVG 1.1//EN" "http://www.w3.org/Graphics/SVG/1.1/DTD/svg11.dtd"><svg width="100%" height="100%" viewBox="0 0 131 127" version="1.1" xmlns="http://www.w3.org/2000/svg" xmlns:xlink="http://www.w3.org/1999/xlink" xml:space="preserve" xmlns:serif="http://www.serif.com/" style="fill-rule:evenodd;clip-rule:evenodd;stroke-linejoin:round;stroke-miterlimit:1.41421;"><g id="analyze-icon"><rect x="0.333" y="0.667" width="130" height="125.5" style="fill:#fff;"/><g id="analyze-icon1" serif:id="analyze-icon"><circle cx="65.333" cy="63.572" r="46.863" style="fill:url(#_Linear1);"/><g><path d="M94.484,107.149c0,0.258 -0.21,0.467 -0.467,0.467l-61.192,0c-0.258,0 -0.468,-0.209 -0.468,-0.467l0,-87.154c0,-0.259 0.21,-0.467 0.468,-0.467l61.192,0c0.257,0 0.467,0.208 0.467,0.467l0,87.154Z" style="fill:#fff;fill-rule:nonzero;"/><path d="M94.014,19.995l-61.189,0.002l0.002,87.152l61.187,-0.003l0,-87.151Zm0.003,87.151l0,0.47l0,-0.47Zm0,0.939l-61.192,0c-0.517,0 -0.937,-0.42 -0.937,-0.936l0,-87.154c0,-0.516 0.42,-0.937 0.937,-0.937l61.192,0c0.516,0 0.936,0.421 0.936,0.937l0,87.154c0,0.516 -0.42,0.936 -0.936,0.936Z" style="fill:#392a6a;fill-rule:nonzero;"/><path d="M94.484,24.505l0,-4.51c0,-0.259 -0.21,-0.467 -0.467,-0.467l-61.192,0c-0.258,0 -0.468,0.208 -0.468,0.467l0,4.51l62.127,0Z" style="fill:#cceef5;fill-rule:nonzero;"/><path d="M32.827,24.035l61.187,0l0,-4.04l-61.189,0.002l0.002,4.038Zm61.657,0.939l-62.127,0c-0.259,0 -0.469,-0.211 -0.469,-0.469l0,-4.51c0,-0.516 0.42,-0.937 0.937,-0.937l61.192,0c0.516,0 0.936,0.421 0.936,0.937l0,4.51c0,0.258 -0.21,0.469 -0.469,0.469Z" style="fill:#392a6a;fill-rule:nonzero;"/><path d="M32.357,96.756l0,10.393c0,0.258 0.21,0.467 0.468,0.467l61.192,0c0.257,0 0.467,-0.209 0.467,-0.467l0,-10.393l-62.127,0Z" style="fill:#f1fafc;fill-rule:nonzero;"/><path d="M32.827,97.225l0,9.924l61.188,-0.003l-0.001,-9.921l-61.187,0Zm61.19,9.921l0,0.47l0,-0.47Zm0,0.939l-61.192,0c-0.517,0 -0.937,-0.42 -0.937,-0.936l0,-10.393c0,-0.26 0.21,-0.47 0.469,-0.47l62.127,0c0.259,0 0.469,0.21 0.469,0.47l0,10.393c0,0.516 -0.42,0.936 -0.936,0.936Z" style="fill:#392a6a;fill-rule:nonzero;"/><rect x="32.357" y="40.707" width="62.126" height="23.494" style="fill:#34ca9d;"/><path d="M32.827,63.73l61.187,0l0,-22.553l-61.187,0l0,22.553Zm61.657,0.939l-62.127,0c-0.259,0 -0.469,-0.21 -0.469,-0.469l0,-23.493c0,-0.259 0.21,-0.469 0.469,-0.469l62.127,0c0.259,0 0.469,0.21 0.469,0.469l0,23.493c0,0.259 -0.21,0.469 -0.469,0.469Z" style="fill:#392a6a;fill-rule:nonzero;"/><rect x="46.542" y="47.979" width="33.758" height="2.217" style="fill:#fff;"/><path d="M47.011,49.727l32.819,0l0,-1.279l-32.819,0l0,1.279Zm33.289,0.938l-33.758,0c-0.26,0 -0.47,-0.209 -0.47,-0.469l0,-2.217c0,-0.259 0.21,-0.47 0.47,-0.47l33.758,0c0.259,0 0.469,0.211 0.469,0.47l0,2.217c0,0.26 -0.21,0.469 -0.469,0.469Z" style="fill:#392a6a;fill-rule:nonzero;"/><path d="M40.63,21.972c0,0.44 -0.357,0.797 -0.796,0.797c-0.44,0 -0.797,-0.357 -0.797,-0.797c0,-0.441 0.357,-0.796 0.797,-0.796c0.439,0 0.796,0.355 0.796,0.796Z" style="fill:#fff;fill-rule:nonzero;"/><path d="M39.834,21.645c-0.18,0 -0.327,0.147 -0.327,0.327c0,0.179 0.147,0.327 0.327,0.327c0.18,0 0.327,-0.148 0.327,-0.327c0,-0.18 -0.147,-0.327 -0.327,-0.327Zm0,1.593c-0.699,0 -1.267,-0.568 -1.267,-1.266c0,-0.698 0.568,-1.266 1.267,-1.266c0.698,0 1.266,0.568 1.266,1.266c0,0.698 -0.568,1.266 -1.266,1.266Z" style="fill:#392a6a;fill-rule:nonzero;"/><path d="M38.028,21.972c0,0.44 -0.355,0.797 -0.795,0.797c-0.44,0 -0.796,-0.357 -0.796,-0.797c0,-0.441 0.356,-0.796 0.796,-0.796c0.44,0 0.795,0.355 0.795,0.796Z" style="fill:#fff;fill-rule:nonzero;"/><path d="M37.233,21.645c-0.181,0 -0.327,0.147 -0.327,0.327c0,0.179 0.146,0.327 0.327,0.327c0.18,0 0.326,-0.148 0.326,-0.327c0,-0.18 -0.146,-0.327 -0.326,-0.327Zm0,1.593c-0.698,0 -1.266,-0.568 -1.266,-1.266c0,-0.698 0.568,-1.266 1.266,-1.266c0.697,0 1.265,0.568 1.265,1.266c0,0.698 -0.568,1.266 -1.265,1.266Z" style="fill:#392a6a;fill-rule:nonzero;"/><path d="M35.43,21.972c0,0.44 -0.358,0.797 -0.799,0.797c-0.44,0 -0.796,-0.357 -0.796,-0.797c0,-0.441 0.356,-0.796 0.796,-0.796c0.441,0 0.799,0.355 0.799,0.796Z" style="fill:#fff;fill-rule:nonzero;"/><path d="M34.631,21.645c-0.179,0 -0.327,0.147 -0.327,0.327c0,0.179 0.148,0.327 0.327,0.327c0.181,0 0.329,-0.148 0.329,-0.327c0,-0.18 -0.148,-0.327 -0.329,-0.327Zm0,1.593c-0.698,0 -1.266,-0.568 -1.266,-1.266c0,-0.698 0.568,-1.266 1.266,-1.266c0.699,0 1.268,0.568 1.268,1.266c0,0.698 -0.569,1.266 -1.268,1.266Z" style="fill:#392a6a;fill-rule:nonzero;"/><rect x="37.678" y="36.259" width="9.421" height="0.939" style="fill:#392a6a;"/><rect x="48.193" y="36.259" width="9.421" height="0.939" style="fill:#392a6a;"/><rect x="58.709" y="36.259" width="9.422" height="0.939" style="fill:#392a6a;"/><rect x="69.226" y="36.259" width="9.42" height="0.939" style="fill:#392a6a;"/><rect x="79.741" y="36.259" width="9.422" height="0.939" style="fill:#392a6a;"/><path d="M89.473,101.839c0,0.711 -0.578,1.287 -1.29,1.287c-0.711,0 -1.288,-0.576 -1.288,-1.287c0,-0.712 0.577,-1.289 1.288,-1.289c0.712,0 1.29,0.577 1.29,1.289Z" style="fill:#fff;fill-rule:nonzero;"/><path d="M88.183,101.02c-0.451,0 -0.818,0.367 -0.818,0.819c0,0.451 0.367,0.818 0.818,0.818c0.452,0 0.819,-0.367 0.819,-0.818c0,-0.452 -0.367,-0.819 -0.819,-0.819Zm0,2.576c-0.969,0 -1.757,-0.788 -1.757,-1.757c0,-0.969 0.788,-1.758 1.757,-1.758c0.97,0 1.759,0.789 1.759,1.758c0,0.969 -0.789,1.757 -1.759,1.757Z" style="fill:#392a6a;fill-rule:nonzero;"/><path d="M85.443,101.839c0,0.711 -0.576,1.287 -1.288,1.287c-0.712,0 -1.288,-0.576 -1.288,-1.287c0,-0.712 0.576,-1.289 1.288,-1.289c0.712,0 1.288,0.577 1.288,1.289Z" style="fill:#fff;fill-rule:nonzero;"/><path d="M84.155,101.02c-0.451,0 -0.819,0.367 -0.819,0.819c0,0.451 0.368,0.818 0.819,0.818c0.451,0 0.819,-0.367 0.819,-0.818c0,-0.452 -0.368,-0.819 -0.819,-0.819Zm0,2.576c-0.969,0 -1.758,-0.788 -1.758,-1.757c0,-0.969 0.789,-1.758 1.758,-1.758c0.969,0 1.758,0.789 1.758,1.758c0,0.969 -0.789,1.757 -1.758,1.757Z" style="fill:#392a6a;fill-rule:nonzero;"/><path d="M81.414,101.839c0,0.711 -0.575,1.287 -1.289,1.287c-0.71,0 -1.287,-0.576 -1.287,-1.287c0,-0.712 0.577,-1.289 1.287,-1.289c0.714,0 1.289,0.577 1.289,1.289Z" style="fill:#fff;fill-rule:nonzero;"/><path d="M80.125,101.02c-0.451,0 -0.818,0.367 -0.818,0.819c0,0.451 0.367,0.818 0.818,0.818c0.452,0 0.82,-0.367 0.82,-0.818c0,-0.452 -0.368,-0.819 -0.82,-0.819Zm0,2.576c-0.969,0 -1.757,-0.788 -1.757,-1.757c0,-0.969 0.788,-1.758 1.757,-1.758c0.97,0 1.759,0.789 1.759,1.758c0,0.969 -0.789,1.757 -1.759,1.757Z" style="fill:#392a6a;fill-rule:nonzero;"/><rect x="37.368" y="100.578" width="11.111" height="0.939" style="fill:#392a6a;"/><rect x="37.368" y="102.612" width="22.968" height="0.939" style="fill:#392a6a;"/><rect x="37.806" y="69.046" width="14.61" height="14.611" style="fill:#cceef5;"/><path d="M52.884,68.576l-15.548,0l0,15.549l15.548,0l0,-15.549Zm-0.938,0.939l0,13.672l-13.671,0l0,-13.672l13.671,0Z" style="fill:#392a6a;fill-rule:nonzero;"/><path d="M52.386,69.076l-14.551,14.55l14.551,-14.55Z" style="fill:#fff;fill-rule:nonzero;"/><path d="M38.167,83.958l-0.664,-0.664l14.552,-14.55l0.663,0.664l-14.551,14.55Z" style="fill:#392a6a;fill-rule:nonzero;"/><path d="M52.386,83.626l-14.551,-14.55l14.551,14.55Z" style="fill:#fff;fill-rule:nonzero;"/><path d="M52.055,83.958l-14.552,-14.55l0.664,-0.664l14.551,14.55l-0.663,0.664Z" style="fill:#392a6a;fill-rule:nonzero;"/><rect x="37.429" y="86.025" width="11.111" height="0.939" style="fill:#392a6a;"/><rect x="37.429" y="88.059" width="15.456" height="0.939" style="fill:#392a6a;"/><rect x="37.429" y="90.092" width="13.928" height="0.939" style="fill:#392a6a;"/><rect x="37.429" y="92.127" width="11.111" height="0.939" style="fill:#392a6a;"/><rect x="56.115" y="69.046" width="14.61" height="14.611" style="fill:#cceef5;"/><path d="M71.195,68.576l-15.549,0l0,15.549l15.549,0l0,-15.549Zm-0.939,0.939l0,13.672l-13.672,0l0,-13.672l13.672,0Z" style="fill:#392a6a;fill-rule:nonzero;"/><path d="M70.696,69.076l-14.551,14.55l14.551,-14.55Z" style="fill:#fff;fill-rule:nonzero;"/><path d="M56.477,83.958l-0.664,-0.664l14.551,-14.55l0.664,0.664l-14.551,14.55Z" style="fill:#392a6a;fill-rule:nonzero;"/><path d="M70.696,83.626l-14.551,-14.55l14.551,14.55Z" style="fill:#fff;fill-rule:nonzero;"/><path d="M70.364,83.958l-14.551,-14.55l0.664,-0.664l14.551,14.55l-0.664,0.664Z" style="fill:#392a6a;fill-rule:nonzero;"/><rect x="55.739" y="86.025" width="11.111" height="0.939" style="fill:#392a6a;"/><rect x="55.739" y="88.059" width="15.456" height="0.939" style="fill:#392a6a;"/><rect x="55.739" y="90.092" width="13.928" height="0.939" style="fill:#392a6a;"/><rect x="55.739" y="92.127" width="11.111" height="0.939" style="fill:#392a6a;"/><rect x="74.425" y="69.046" width="14.61" height="14.611" style="fill:#cceef5;"/><path d="M89.505,68.576l-15.549,0l0,15.549l15.549,0l0,-15.549Zm-0.939,0.939l0,13.672l-13.671,0l0,-13.672l13.671,0Z" style="fill:#392a6a;fill-rule:nonzero;"/><path d="M89.006,69.076l-14.551,14.55l14.551,-14.55Z" style="fill:#fff;fill-rule:nonzero;"/><path d="M74.787,83.958l-0.664,-0.664l14.551,-14.55l0.664,0.664l-14.551,14.55Z" style="fill:#392a6a;fill-rule:nonzero;"/><path d="M89.006,83.626l-14.551,-14.55l14.551,14.55Z" style="fill:#fff;fill-rule:nonzero;"/><path d="M88.674,83.958l-14.551,-14.55l0.664,-0.664l14.551,14.55l-0.664,0.664Z" style="fill:#392a6a;fill-rule:nonzero;"/><rect x="74.048" y="86.025" width="11.111" height="0.939" style="fill:#392a6a;"/><rect x="74.048" y="88.059" width="15.456" height="0.939" style="fill:#392a6a;"/><rect x="74.048" y="90.092" width="13.928" height="0.939" style="fill:#392a6a;"/><rect x="74.048" y="92.127" width="11.111" height="0.939" style="fill:#392a6a;"/><rect x="43.859" y="53.004" width="39.124" height="0.939" style="fill:#392a6a;"/><rect x="50.118" y="56.29" width="26.603" height="0.939" style="fill:#392a6a;"/><path d="M66.551,30.938c0,1.728 -1.402,3.13 -3.131,3.13c-1.729,0 -3.13,-1.402 -3.13,-3.13c0,-1.728 1.401,-3.129 3.13,-3.129c1.729,0 3.131,1.401 3.131,3.129Z" style="fill:#fcbe12;fill-rule:nonzero;"/><path d="M63.42,28.278c-1.467,0 -2.66,1.193 -2.66,2.66c0,1.467 1.193,2.66 2.66,2.66c1.467,0 2.661,-1.193 2.661,-2.66c0,-1.467 -1.194,-2.66 -2.661,-2.66Zm0,6.259c-1.985,0 -3.599,-1.614 -3.599,-3.599c0,-1.985 1.614,-3.599 3.599,-3.599c1.985,0 3.6,1.614 3.6,3.599c0,1.985 -1.615,3.599 -3.6,3.599Z" style="fill:#392a6a;fill-rule:nonzero;"/><path d="M36.122,55.088l-1.201,-1.652c-0.12,-0.164 -0.12,-0.388 0,-0.552l1.201,-1.652l0.759,0.553l-1,1.375l1,1.375l-0.759,0.553Z" style="fill:#392a6a;fill-rule:nonzero;"/><rect x="35.3" y="52.69" width="3.658" height="0.939" style="fill:#392a6a;"/><path d="M90.718,55.088l-0.759,-0.553l1.001,-1.375l-1.001,-1.375l0.759,-0.553l1.202,1.652c0.12,0.164 0.12,0.388 0,0.552l-1.202,1.652Z" style="fill:#392a6a;fill-rule:nonzero;"/><rect x="87.882" y="52.69" width="3.658" height="0.939" style="fill:#392a6a;"/></g></g></g><defs><linearGradient id="_Linear1" x1="0" y1="0" x2="1" y2="0" gradientUnits="userSpaceOnUse" gradientTransform="matrix(142.797,15.462,-15.462,142.797,-15.0529,57.4026)"><stop offset="0" style="stop-color:#925ecd;stop-opacity:1"/><stop offset="1" style="stop-color:#6032d4;stop-opacity:1"/></linearGradient></defs></svg>