<?xml version="1.0" encoding="UTF-8" standalone="no"?><!DOCTYPE svg PUBLIC "-//W3C//DTD SVG 1.1//EN" "http://www.w3.org/Graphics/SVG/1.1/DTD/svg11.dtd"><svg width="100%" height="100%" viewBox="0 0 72 72" version="1.1" xmlns="http://www.w3.org/2000/svg" xmlns:xlink="http://www.w3.org/1999/xlink" xml:space="preserve" xmlns:serif="http://www.serif.com/" style="fill-rule:evenodd;clip-rule:evenodd;stroke-linejoin:round;stroke-miterlimit:1.41421;"><g id="development-icon"><rect x="0" y="0" width="72" height="72" style="fill:#fff;"/><circle cx="36.624" cy="36" r="27.656" style="fill:url(#_Linear1);"/><rect x="29.041" y="14.853" width="31.356" height="42.456" style="fill:#f1fafc;"/><g><path d="M60.599,12.562l-31.082,0.001l0.001,44.27l31.081,-0.001l0,-44.27Zm0.001,44.27l0,0.238l0,-0.238Zm0,0.477l-31.083,0c-0.262,0 -0.476,-0.214 -0.476,-0.476l0,-44.271c0,-0.262 0.214,-0.476 0.476,-0.476l31.083,0c0.262,0 0.476,0.214 0.476,0.476l0,44.271c0,0.262 -0.214,0.476 -0.476,0.476Z" style="fill:#392a6a;fill-rule:nonzero;"/><path d="M60.837,14.853l0,-2.291c0,-0.131 -0.106,-0.237 -0.237,-0.237l-31.083,0c-0.131,0 -0.237,0.106 -0.237,0.237l0,2.291l31.557,0Z" style="fill:#cceef5;fill-rule:nonzero;"/><path d="M29.518,14.614l31.081,0l0,-2.052l-31.082,0.001l0.001,2.051Zm31.319,0.477l-31.557,0c-0.132,0 -0.239,-0.107 -0.239,-0.238l0,-2.291c0,-0.262 0.214,-0.476 0.476,-0.476l31.083,0c0.262,0 0.476,0.214 0.476,0.476l0,2.291c0,0.131 -0.107,0.238 -0.239,0.238Z" style="fill:#392a6a;fill-rule:nonzero;"/><path d="M33.482,13.566c0,0.224 -0.181,0.405 -0.405,0.405c-0.223,0 -0.404,-0.181 -0.404,-0.405c0,-0.223 0.181,-0.404 0.404,-0.404c0.224,0 0.405,0.181 0.405,0.404Z" style="fill:#fff;fill-rule:nonzero;"/><path d="M33.077,13.401c-0.092,0 -0.166,0.074 -0.166,0.165c0,0.092 0.074,0.167 0.166,0.167c0.092,0 0.166,-0.075 0.166,-0.167c0,-0.091 -0.074,-0.165 -0.166,-0.165Zm0,0.809c-0.354,0 -0.643,-0.289 -0.643,-0.644c0,-0.354 0.289,-0.642 0.643,-0.642c0.355,0 0.643,0.288 0.643,0.642c0,0.355 -0.288,0.644 -0.643,0.644Z" style="fill:#392a6a;fill-rule:nonzero;"/><path d="M32.16,13.566c0,0.224 -0.18,0.405 -0.404,0.405c-0.223,0 -0.404,-0.181 -0.404,-0.405c0,-0.223 0.181,-0.404 0.404,-0.404c0.224,0 0.404,0.181 0.404,0.404Z" style="fill:#fff;fill-rule:nonzero;"/><path d="M31.756,13.401c-0.091,0 -0.165,0.074 -0.165,0.165c0,0.092 0.074,0.167 0.165,0.167c0.092,0 0.166,-0.075 0.166,-0.167c0,-0.091 -0.074,-0.165 -0.166,-0.165Zm0,0.809c-0.354,0 -0.642,-0.289 -0.642,-0.644c0,-0.354 0.288,-0.642 0.642,-0.642c0.354,0 0.643,0.288 0.643,0.642c0,0.355 -0.289,0.644 -0.643,0.644Z" style="fill:#392a6a;fill-rule:nonzero;"/><path d="M30.84,13.566c0,0.224 -0.181,0.405 -0.405,0.405c-0.224,0 -0.404,-0.181 -0.404,-0.405c0,-0.223 0.18,-0.404 0.404,-0.404c0.224,0 0.405,0.181 0.405,0.404Z" style="fill:#fff;fill-rule:nonzero;"/><path d="M30.435,13.401c-0.092,0 -0.166,0.074 -0.166,0.165c0,0.092 0.074,0.167 0.166,0.167c0.092,0 0.167,-0.075 0.167,-0.167c0,-0.091 -0.075,-0.165 -0.167,-0.165Zm0,0.809c-0.354,0 -0.643,-0.289 -0.643,-0.644c0,-0.354 0.289,-0.642 0.643,-0.642c0.355,0 0.644,0.288 0.644,0.642c0,0.355 -0.289,0.644 -0.644,0.644Z" style="fill:#392a6a;fill-rule:nonzero;"/><rect x="31.856" y="18.503" width="5.644" height="0.477" style="fill:#392a6a;fill-rule:nonzero;"/><rect x="34.598" y="19.537" width="7.851" height="0.477" style="fill:#392a6a;fill-rule:nonzero;"/><rect x="34.598" y="20.57" width="7.075" height="0.477" style="fill:#392a6a;fill-rule:nonzero;"/><rect x="34.598" y="21.603" width="5.644" height="0.477" style="fill:#392a6a;fill-rule:nonzero;"/><rect x="31.856" y="30.189" width="5.644" height="0.477" style="fill:#392a6a;fill-rule:nonzero;"/><rect x="34.598" y="31.222" width="15.125" height="0.477" style="fill:#392a6a;fill-rule:nonzero;"/><rect x="34.598" y="32.255" width="12.758" height="0.477" style="fill:#392a6a;fill-rule:nonzero;"/><rect x="36.029" y="33.289" width="5.644" height="0.477" style="fill:#392a6a;fill-rule:nonzero;"/><rect x="31.856" y="24.585" width="5.644" height="0.477" style="fill:#392a6a;fill-rule:nonzero;"/><rect x="34.598" y="25.618" width="23.192" height="0.477" style="fill:#392a6a;fill-rule:nonzero;"/><rect x="34.598" y="26.651" width="22.416" height="0.477" style="fill:#392a6a;fill-rule:nonzero;"/><rect x="34.598" y="27.685" width="5.644" height="0.477" style="fill:#392a6a;fill-rule:nonzero;"/><path d="M10.795,33.833l2.356,0l0,-3.576l-2.356,0l0,3.576Zm2.594,0.477l-2.833,0c-0.132,0 -0.238,-0.107 -0.238,-0.239l0,-4.052c0,-0.132 0.106,-0.239 0.238,-0.239l2.833,0c0.132,0 0.239,0.107 0.239,0.239l0,4.052c0,0.132 -0.107,0.239 -0.239,0.239Z" style="fill:#392a6a;fill-rule:nonzero;"/><path d="M11.981,34.124c-0.065,0 -0.119,-0.053 -0.119,-0.119l0,-3.92c0,-0.066 0.054,-0.12 0.119,-0.12c0.066,0 0.12,0.054 0.12,0.12l0,3.92c0,0.066 -0.054,0.119 -0.12,0.119Z" style="fill:#392a6a;fill-rule:nonzero;"/><path d="M13.407,31.462l-2.851,0c-0.066,0 -0.119,-0.054 -0.119,-0.119c0,-0.066 0.053,-0.12 0.119,-0.12l2.851,0c0.066,0 0.119,0.054 0.119,0.12c0,0.065 -0.053,0.119 -0.119,0.119Z" style="fill:#392a6a;fill-rule:nonzero;"/><path d="M13.407,32.819l-2.851,0c-0.066,0 -0.119,-0.053 -0.119,-0.119c0,-0.066 0.053,-0.119 0.119,-0.119l2.851,0c0.066,0 0.119,0.053 0.119,0.119c0,0.066 -0.053,0.119 -0.119,0.119Z" style="fill:#392a6a;fill-rule:nonzero;"/><path d="M9.881,32.198l-0.884,0c-0.132,0 -0.239,-0.107 -0.239,-0.238c0,-0.132 0.107,-0.239 0.239,-0.239l0.884,0c0.132,0 0.239,0.107 0.239,0.239c0,0.131 -0.107,0.238 -0.239,0.238Z" style="fill:#2c5871;fill-rule:nonzero;"/><path d="M7.958,29.363c-0.131,0 -0.238,-0.107 -0.238,-0.239l0,-0.519c0,-0.131 0.107,-0.238 0.238,-0.238c0.132,0 0.239,0.107 0.239,0.238l0,0.519c0,0.132 -0.107,0.239 -0.239,0.239Z" style="fill:#2c5871;fill-rule:nonzero;"/><path d="M10.919,29.363c-0.131,0 -0.238,-0.107 -0.238,-0.239l0,-0.519c0,-0.131 0.107,-0.238 0.238,-0.238c0.132,0 0.239,0.107 0.239,0.238l0,0.519c0,0.132 -0.107,0.239 -0.239,0.239Z" style="fill:#2c5871;fill-rule:nonzero;"/><path d="M9.439,32.113c-0.132,0 -0.238,-0.107 -0.238,-0.239l0,-3.115c0,-0.131 0.106,-0.238 0.238,-0.238c0.132,0 0.239,0.107 0.239,0.238l0,3.115c0,0.132 -0.107,0.239 -0.239,0.239Z" style="fill:#392a6a;fill-rule:nonzero;"/><path d="M10.919,28.844l-2.961,0c-0.131,0 -0.238,-0.107 -0.238,-0.239c0,-0.131 0.107,-0.238 0.238,-0.238l2.961,0c0.132,0 0.239,0.107 0.239,0.238c0,0.132 -0.107,0.239 -0.239,0.239Z" style="fill:#392a6a;fill-rule:nonzero;"/><path d="M20.487,59.286c-0.024,0 -0.05,-0.003 -0.074,-0.012c-0.125,-0.041 -0.194,-0.175 -0.153,-0.3l1.674,-5.116c0.032,-0.098 0.124,-0.164 0.227,-0.164c0.103,0 0.194,0.066 0.227,0.164l1.673,5.116c0.041,0.125 -0.027,0.259 -0.152,0.3c-0.125,0.042 -0.26,-0.027 -0.301,-0.152l-1.447,-4.423l-1.448,4.423c-0.032,0.1 -0.126,0.164 -0.226,0.164Z" style="fill:#392a6a;fill-rule:nonzero;"/><path d="M20.932,59.286l-0.799,0c-0.131,0 -0.238,-0.106 -0.238,-0.238c0,-0.132 0.107,-0.239 0.238,-0.239l0.799,0c0.132,0 0.239,0.107 0.239,0.239c0,0.132 -0.107,0.238 -0.239,0.238Z" style="fill:#2c5871;fill-rule:nonzero;"/><path d="M24.188,59.286l-0.799,0c-0.132,0 -0.238,-0.106 -0.238,-0.238c0,-0.132 0.106,-0.239 0.238,-0.239l0.799,0c0.132,0 0.239,0.107 0.239,0.239c0,0.132 -0.107,0.238 -0.239,0.238Z" style="fill:#2c5871;fill-rule:nonzero;"/><path d="M23.23,57.708l-2.14,0c-0.132,0 -0.239,-0.106 -0.239,-0.238c0,-0.132 0.107,-0.239 0.239,-0.239l2.14,0c0.132,0 0.238,0.107 0.238,0.239c0,0.132 -0.106,0.238 -0.238,0.238Z" style="fill:#2c5871;fill-rule:nonzero;"/><path d="M25.159,55.361c-0.094,0.025 -0.199,0.05 -0.317,0.076c-0.262,0.058 -0.445,0.1 -0.545,0.127c-0.069,0.019 -0.136,0.057 -0.2,0.112c-0.029,0.025 -0.058,0.062 -0.058,0.157c0,0.083 0.028,0.148 0.091,0.207c0.04,0.04 0.111,0.09 0.266,0.09c0.152,0 0.287,-0.032 0.412,-0.099c0.118,-0.063 0.204,-0.142 0.256,-0.235c0.031,-0.055 0.079,-0.176 0.095,-0.435Zm-0.763,1.246c-0.242,0 -0.442,-0.074 -0.596,-0.221c-0.158,-0.151 -0.238,-0.337 -0.238,-0.553c0,-0.271 0.122,-0.431 0.224,-0.518c0.115,-0.101 0.245,-0.173 0.385,-0.211c0.106,-0.029 0.296,-0.072 0.568,-0.132c0.26,-0.058 0.455,-0.111 0.579,-0.158c0.073,-0.028 0.155,-0.018 0.22,0.027c0.064,0.045 0.103,0.118 0.103,0.196l0,0.141c0,0.385 -0.053,0.664 -0.162,0.853c-0.095,0.171 -0.246,0.314 -0.447,0.421c-0.192,0.103 -0.406,0.155 -0.636,0.155Z" style="fill:#392a6a;fill-rule:nonzero;"/><path d="M25.425,56.585c-0.132,0 -0.238,-0.107 -0.238,-0.239l0,-1.556c0,-0.274 -0.206,-0.497 -0.458,-0.497l-0.164,0c-0.183,0 -0.347,0.117 -0.42,0.299c-0.049,0.123 -0.189,0.181 -0.31,0.133c-0.122,-0.049 -0.182,-0.187 -0.133,-0.31c0.146,-0.364 0.484,-0.599 0.863,-0.599l0.164,0c0.515,0 0.935,0.437 0.935,0.974l0,1.556c0,0.132 -0.107,0.239 -0.239,0.239Z" style="fill:#392a6a;fill-rule:nonzero;"/><path d="M20.646,33.625l-2.99,-3.336l-2.99,-3.336l11.96,0l-2.99,3.336l-2.99,3.336Z" style="fill:#cceef5;fill-rule:nonzero;"/><path d="M15.2,27.192l5.446,6.076l5.446,-6.076l-10.892,0Zm5.446,6.672c-0.068,0 -0.132,-0.029 -0.178,-0.079l-5.98,-6.673c-0.062,-0.07 -0.078,-0.17 -0.04,-0.256c0.039,-0.086 0.124,-0.141 0.218,-0.141l11.96,0c0.094,0 0.179,0.055 0.217,0.141c0.039,0.086 0.023,0.186 -0.039,0.256l-5.981,6.673c-0.045,0.05 -0.11,0.079 -0.177,0.079Z" style="fill:#392a6a;fill-rule:nonzero;"/><path d="M20.646,33.625l-1.318,-3.336l-1.318,-3.336l5.272,0l-1.318,3.336l-1.318,3.336Z" style="fill:#34ca9d;fill-rule:nonzero;"/><path d="M18.36,27.192l2.286,5.784l2.285,-5.784l-4.571,0Zm2.286,6.672c-0.098,0 -0.186,-0.06 -0.222,-0.151l-2.636,-6.672c-0.029,-0.074 -0.02,-0.157 0.024,-0.222c0.045,-0.065 0.119,-0.104 0.198,-0.104l5.272,0c0.079,0 0.153,0.039 0.197,0.104c0.045,0.065 0.054,0.148 0.025,0.222l-2.637,6.672c-0.035,0.091 -0.124,0.151 -0.221,0.151Z" style="fill:#392a6a;fill-rule:nonzero;"/><path d="M14.666,26.969l11.96,0l-1.645,-2.121l-8.67,0l-1.645,2.121Z" style="fill:#cceef5;fill-rule:nonzero;"/><path d="M15.153,26.73l10.986,0l-1.275,-1.644l-8.436,0l-1.275,1.644Zm11.473,0.477l-11.96,0c-0.091,0 -0.174,-0.051 -0.214,-0.133c-0.04,-0.082 -0.03,-0.179 0.026,-0.251l1.645,-2.121c0.045,-0.059 0.115,-0.093 0.188,-0.093l8.67,0c0.073,0 0.143,0.034 0.188,0.093l1.645,2.121c0.056,0.072 0.066,0.169 0.026,0.251c-0.04,0.082 -0.123,0.133 -0.214,0.133Z" style="fill:#392a6a;fill-rule:nonzero;"/><path d="M20.646,24.827l-2.636,2.142l5.272,0l-2.636,-2.142Z" style="fill:#34ca9d;fill-rule:nonzero;"/><path d="M18.681,26.73l3.93,0l-1.965,-1.596l-1.965,1.596Zm4.601,0.477l-5.272,0c-0.101,0 -0.191,-0.063 -0.225,-0.158c-0.034,-0.095 -0.004,-0.201 0.074,-0.265l2.636,-2.142c0.088,-0.071 0.214,-0.071 0.301,0l2.637,2.142c0.078,0.064 0.108,0.17 0.074,0.265c-0.034,0.095 -0.124,0.158 -0.225,0.158Z" style="fill:#392a6a;fill-rule:nonzero;"/><path d="M17.988,26.969l-1.672,-2.121l-0.005,0l-1.645,2.121l3.322,0Z" style="fill:#34ca9d;fill-rule:nonzero;"/><path d="M15.153,26.73l2.343,0l-1.181,-1.498l-1.162,1.498Zm2.835,0.477l-3.322,0c-0.091,0 -0.174,-0.051 -0.214,-0.133c-0.04,-0.082 -0.03,-0.179 0.026,-0.251l1.645,-2.121c0.09,-0.117 0.289,-0.117 0.38,-0.002l1.672,2.121c0.057,0.072 0.068,0.17 0.028,0.252c-0.04,0.082 -0.124,0.134 -0.215,0.134Z" style="fill:#392a6a;fill-rule:nonzero;"/><path d="M23.304,26.969l1.672,-2.121l0.005,0l1.645,2.121l-3.322,0Z" style="fill:#34ca9d;fill-rule:nonzero;"/><path d="M23.796,26.73l2.343,0l-1.162,-1.498l-1.181,1.498Zm2.835,0.477c-0.002,0 -0.004,0.001 -0.005,0l-3.322,0c-0.091,0 -0.175,-0.052 -0.215,-0.134c-0.04,-0.082 -0.029,-0.18 0.028,-0.252l1.672,-2.121c0.09,-0.115 0.29,-0.115 0.38,0.002l1.621,2.09c0.049,0.043 0.079,0.107 0.079,0.177c0,0.132 -0.107,0.238 -0.238,0.238Z" style="fill:#2c5871;fill-rule:nonzero;"/><rect x="13.374" y="36.642" width="35.294" height="15.289" style="fill:#fff;fill-rule:nonzero;"/><path d="M48.906,36.404l-35.771,0l0,15.765l35.771,0l0,-15.765Zm-0.477,0.477l0,14.811l-34.817,0l0,-14.811l34.817,0Z" style="fill:#392a6a;fill-rule:nonzero;"/><path d="M18.308,39.064l-2.522,0l0,2.522l2.522,0l0,-2.522Zm-0.477,0.476l0,1.569l-1.568,0l0,-1.569l1.568,0Z" style="fill:#392a6a;fill-rule:nonzero;"/><path d="M21.802,39.064l-2.523,0l0,2.522l2.523,0l0,-2.522Zm-0.477,0.476l0,1.569l-1.569,0l0,-1.569l1.569,0Z" style="fill:#392a6a;fill-rule:nonzero;"/><path d="M25.296,39.064l-2.523,0l0,2.522l2.523,0l0,-2.522Zm-0.477,0.476l0,1.569l-1.569,0l0,-1.569l1.569,0Z" style="fill:#392a6a;fill-rule:nonzero;"/><path d="M28.789,39.064l-2.523,0l0,2.522l2.523,0l0,-2.522Zm-0.477,0.476l0,1.569l-1.569,0l0,-1.569l1.569,0Z" style="fill:#392a6a;fill-rule:nonzero;"/><path d="M32.281,39.064l-2.522,0l0,2.522l2.522,0l0,-2.522Zm-0.477,0.476l0,1.569l-1.568,0l0,-1.569l1.568,0Z" style="fill:#392a6a;fill-rule:nonzero;"/><path d="M35.775,39.064l-2.522,0l0,2.522l2.522,0l0,-2.522Zm-0.477,0.476l0,1.569l-1.568,0l0,-1.569l1.568,0Z" style="fill:#392a6a;fill-rule:nonzero;"/><path d="M39.268,39.064l-2.523,0l0,2.522l2.523,0l0,-2.522Zm-0.477,0.476l0,1.569l-1.569,0l0,-1.569l1.569,0Z" style="fill:#392a6a;fill-rule:nonzero;"/><path d="M42.761,39.064l-2.522,0l0,2.522l2.522,0l0,-2.522Zm-0.477,0.476l0,1.569l-1.569,0l0,-1.569l1.569,0Z" style="fill:#392a6a;fill-rule:nonzero;"/><path d="M46.255,39.064l-2.523,0l0,2.522l2.523,0l0,-2.522Zm-0.477,0.476l0,1.569l-1.569,0l0,-1.569l1.569,0Z" style="fill:#392a6a;fill-rule:nonzero;"/><path d="M18.308,42.546l-2.522,0l0,2.523l2.522,0l0,-2.523Zm-0.477,0.477l0,1.569l-1.568,0l0,-1.569l1.568,0Z" style="fill:#392a6a;fill-rule:nonzero;"/><path d="M21.802,42.546l-2.523,0l0,2.523l2.523,0l0,-2.523Zm-0.477,0.477l0,1.569l-1.569,0l0,-1.569l1.569,0Z" style="fill:#392a6a;fill-rule:nonzero;"/><path d="M25.296,42.546l-2.523,0l0,2.523l2.523,0l0,-2.523Zm-0.477,0.477l0,1.569l-1.569,0l0,-1.569l1.569,0Z" style="fill:#392a6a;fill-rule:nonzero;"/><path d="M28.789,42.546l-2.523,0l0,2.523l2.523,0l0,-2.523Zm-0.477,0.477l0,1.569l-1.569,0l0,-1.569l1.569,0Z" style="fill:#392a6a;fill-rule:nonzero;"/><path d="M32.281,42.546l-2.522,0l0,2.523l2.522,0l0,-2.523Zm-0.477,0.477l0,1.569l-1.568,0l0,-1.569l1.568,0Z" style="fill:#392a6a;fill-rule:nonzero;"/><path d="M35.775,42.546l-2.522,0l0,2.523l2.522,0l0,-2.523Zm-0.477,0.477l0,1.569l-1.568,0l0,-1.569l1.568,0Z" style="fill:#392a6a;fill-rule:nonzero;"/><path d="M39.268,42.546l-2.523,0l0,2.523l2.523,0l0,-2.523Zm-0.477,0.477l0,1.569l-1.569,0l0,-1.569l1.569,0Z" style="fill:#392a6a;fill-rule:nonzero;"/><path d="M42.761,42.546l-2.522,0l0,2.523l2.522,0l0,-2.523Zm-0.477,0.477l0,1.569l-1.569,0l0,-1.569l1.569,0Z" style="fill:#392a6a;fill-rule:nonzero;"/><path d="M46.255,42.546l-2.523,0l0,2.523l2.523,0l0,-2.523Zm-0.477,0.477l0,1.569l-1.569,0l0,-1.569l1.569,0Z" style="fill:#392a6a;fill-rule:nonzero;"/><path d="M18.308,46.03l-2.522,0l0,2.523l2.522,0l0,-2.523Zm-0.477,0.477l0,1.569l-1.568,0l0,-1.569l1.568,0Z" style="fill:#392a6a;fill-rule:nonzero;"/><path d="M35.775,46.03l-1.045,0l-1.477,0l-13.974,0l0,2.523l16.496,0l0,-2.523Zm-0.477,0.477l0,1.569l-0.568,0l-1.477,0l-13.497,0l0,-1.569l15.542,0Z" style="fill:#392a6a;fill-rule:nonzero;"/><path d="M39.268,46.03l-2.523,0l0,2.523l2.523,0l0,-2.523Zm-0.477,0.477l0,1.569l-1.569,0l0,-1.569l1.569,0Z" style="fill:#392a6a;fill-rule:nonzero;"/><path d="M42.761,46.03l-2.522,0l0,2.523l2.522,0l0,-2.523Zm-0.477,0.477l0,1.569l-1.569,0l0,-1.569l1.569,0Z" style="fill:#392a6a;fill-rule:nonzero;"/><path d="M46.255,46.03l-2.523,0l0,2.523l2.523,0l0,-2.523Zm-0.477,0.477l0,1.569l-1.569,0l0,-1.569l1.569,0Z" style="fill:#392a6a;fill-rule:nonzero;"/><path d="M18.593,21.148c-0.061,0 -0.122,-0.023 -0.169,-0.07l-2.044,-2.044c-0.093,-0.094 -0.093,-0.244 0,-0.338l2.044,-2.045c0.093,-0.093 0.244,-0.093 0.338,0c0.093,0.093 0.093,0.244 0,0.337l-1.876,1.877l1.876,1.876c0.093,0.093 0.093,0.244 0,0.337c-0.047,0.047 -0.108,0.07 -0.169,0.07Z" style="fill:#392a6a;fill-rule:nonzero;"/><path d="M20.203,21.148c-0.03,0 -0.061,-0.006 -0.091,-0.018c-0.122,-0.049 -0.18,-0.189 -0.13,-0.31l1.669,-4.09c0.05,-0.122 0.189,-0.181 0.311,-0.131c0.122,0.05 0.181,0.189 0.131,0.311l-1.67,4.09c-0.037,0.092 -0.127,0.148 -0.22,0.148Z" style="fill:#392a6a;fill-rule:nonzero;"/><path d="M23.227,21.148c-0.062,0 -0.123,-0.023 -0.169,-0.07c-0.093,-0.093 -0.093,-0.244 0,-0.337l1.875,-1.876l-1.875,-1.877c-0.093,-0.093 -0.093,-0.244 0,-0.337c0.093,-0.093 0.244,-0.093 0.337,0l2.044,2.045c0.093,0.094 0.093,0.244 0,0.338l-2.044,2.044c-0.047,0.047 -0.108,0.07 -0.168,0.07Z" style="fill:#392a6a;fill-rule:nonzero;"/></g></g><defs><linearGradient id="_Linear1" x1="0" y1="0" x2="1" y2="0" gradientUnits="userSpaceOnUse" gradientTransform="matrix(84.2705,9.1248,-9.1248,84.2705,-10.8154,32.3594)"><stop offset="0" style="stop-color:#925ecd;stop-opacity:1"/><stop offset="1" style="stop-color:#6032d4;stop-opacity:1"/></linearGradient></defs></svg>