<?xml version="1.0" encoding="UTF-8" standalone="no"?><!DOCTYPE svg PUBLIC "-//W3C//DTD SVG 1.1//EN" "http://www.w3.org/Graphics/SVG/1.1/DTD/svg11.dtd"><svg width="100%" height="100%" viewBox="0 0 46 46" version="1.1" xmlns="http://www.w3.org/2000/svg" xmlns:xlink="http://www.w3.org/1999/xlink" xml:space="preserve" xmlns:serif="http://www.serif.com/" style="fill-rule:evenodd;clip-rule:evenodd;stroke-linejoin:round;stroke-miterlimit:1.41421;"><g id="enhance-icon-line"><path d="M23,1.322c-11.855,0 -21.5,9.646 -21.5,21.5c0,11.856 9.645,21.5 21.5,21.5c11.856,0 21.5,-9.644 21.5,-21.5c0,-11.854 -9.644,-21.5 -21.5,-21.5Zm0,44c-12.406,0 -22.5,-10.092 -22.5,-22.5c0,-12.406 10.094,-22.5 22.5,-22.5c12.406,0 22.5,10.094 22.5,22.5c0,12.408 -10.094,22.5 -22.5,22.5Z" style="fill:#402d94;fill-rule:nonzero;"/><path d="M18.173,13.618c-1.487,0.006 -2.84,0.59 -3.875,1.643c-1.171,1.191 -1.829,2.884 -1.806,4.646c0.007,0.659 0.111,1.298 0.306,1.905c0.262,1.135 1.675,3.306 6.99,7.445c1.191,0.919 3.014,2.187 3.793,2.728c0.034,0.024 0.067,0.046 0.097,0.066c0.967,-0.64 2.231,-1.604 3.766,-2.87c5.197,-4.255 6.553,-6.477 6.776,-7.591c0.192,-0.654 0.279,-1.299 0.27,-1.958c-0.042,-3.388 -2.582,-6.143 -5.66,-6.143l-0.11,0.002c-2.012,0.027 -3.819,1.112 -4.839,2.904c-0.088,0.154 -0.251,0.25 -0.428,0.252c-0.003,0 -0.005,0 -0.007,0c-0.174,0 -0.337,-0.091 -0.427,-0.241c-1.055,-1.746 -2.867,-2.788 -4.846,-2.788Zm5.493,19.538c-0.083,0 -0.166,-0.021 -0.241,-0.063c-0.025,-0.013 -0.05,-0.029 -0.072,-0.047c-0.041,-0.031 -0.162,-0.115 -0.343,-0.24c-0.785,-0.546 -2.623,-1.823 -3.834,-2.76c-4.52,-3.516 -6.921,-6.123 -7.341,-7.969c-0.216,-0.659 -0.335,-1.401 -0.343,-2.158c-0.026,-2.025 0.737,-3.98 2.093,-5.36c1.224,-1.245 2.826,-1.933 4.515,-1.94l0.001,0c2.141,0 4.064,0.968 5.334,2.624c1.239,-1.71 3.158,-2.724 5.267,-2.752l0.128,-0.002c3.623,0 6.612,3.198 6.66,7.13c0.01,0.76 -0.09,1.504 -0.3,2.211c-0.361,1.81 -2.756,4.557 -7.111,8.124c-1.718,1.417 -3.112,2.469 -4.145,3.123c-0.081,0.053 -0.175,0.079 -0.268,0.079Z" style="fill:#402d94;fill-rule:nonzero;"/><path d="M31.585,21.559c-0.034,0 -0.068,-0.003 -0.103,-0.01c-0.27,-0.057 -0.444,-0.323 -0.387,-0.592l0.075,-0.304c0.093,-0.316 0.138,-0.646 0.134,-0.982c-0.023,-1.677 -1.142,-2.99 -2.549,-2.99c-0.276,0 -0.502,-0.223 -0.502,-0.5c0,-0.276 0.223,-0.5 0.499,-0.5l0.003,0c1.961,0 3.52,1.747 3.549,3.977c0.004,0.439 -0.054,0.867 -0.174,1.273l-0.057,0.23c-0.048,0.236 -0.256,0.398 -0.488,0.398Z" style="fill:#402d94;fill-rule:nonzero;"/></g></svg>