<?xml version="1.0" encoding="UTF-8" standalone="no"?><!DOCTYPE svg PUBLIC "-//W3C//DTD SVG 1.1//EN" "http://www.w3.org/Graphics/SVG/1.1/DTD/svg11.dtd"><svg width="100%" height="100%" viewBox="0 0 73 72" version="1.1" xmlns="http://www.w3.org/2000/svg" xmlns:xlink="http://www.w3.org/1999/xlink" xml:space="preserve" xmlns:serif="http://www.serif.com/" style="fill-rule:evenodd;clip-rule:evenodd;stroke-linejoin:round;stroke-miterlimit:1.41421;"><g id="experience-icon"><rect x="0.475" y="0" width="72" height="72" style="fill:#fff;"/><circle cx="36.475" cy="36" r="27.656" style="fill:url(#_Linear1);"/><g><path d="M43.694,13.579c0,-2.09 -1.697,-3.787 -3.786,-3.787l-13.462,0c-2.09,0 -3.786,1.697 -3.786,3.787l0,31.577c0,2.09 1.696,3.786 3.786,3.786l13.462,0c2.089,0 3.786,-1.696 3.786,-3.786l0,-31.577Z" style="fill:#f1fafc;"/><g><path d="M34.889,32.128c0,-1.151 0.933,-2.084 2.084,-2.084c1.151,0 2.085,0.933 2.085,2.084l0,8.862l1.004,0l0,-2.42c0,-1.086 0.829,-1.975 1.89,-2.073l0,-20.177l-17.166,0l0,24.67l10.103,0l0,-8.862Z" style="fill:#cceef5;fill-rule:nonzero;"/><rect x="24.786" y="24.616" width="17.165" height="8.079" style="fill:#34ca9d;fill-rule:nonzero;"/><rect x="24.786" y="24.16" width="17.165" height="0.566" style="fill:#2c5871;fill-rule:nonzero;"/><rect x="39.12" y="32.362" width="2.831" height="0.566" style="fill:#2c5871;fill-rule:nonzero;"/><rect x="24.786" y="32.362" width="9.998" height="0.566" style="fill:#2c5871;fill-rule:nonzero;"/><rect x="30.717" y="13.028" width="5.304" height="0.566" style="fill:#2c5871;fill-rule:nonzero;"/><rect x="32.04" y="19.904" width="4.364" height="0.566" style="fill:#2c5871;fill-rule:nonzero;"/><rect x="32.04" y="21.727" width="6.794" height="0.566" style="fill:#2c5871;fill-rule:nonzero;"/><rect x="27.041" y="18.84" width="3.536" height="3.536" style="fill:#fcbe12;fill-rule:nonzero;"/><path d="M27.324,22.093l2.97,0l0,-2.97l-2.97,0l0,2.97Zm3.253,0.566l-3.536,0c-0.157,0 -0.283,-0.127 -0.283,-0.283l0,-3.536c0,-0.156 0.126,-0.283 0.283,-0.283l3.536,0c0.156,0 0.283,0.127 0.283,0.283l0,3.536c0,0.156 -0.127,0.283 -0.283,0.283Z" style="fill:#2c5871;fill-rule:nonzero;"/><rect x="32.04" y="27.973" width="4.364" height="0.566" style="fill:#2c5871;fill-rule:nonzero;"/><rect x="32.04" y="29.796" width="3.121" height="0.566" style="fill:#2c5871;fill-rule:nonzero;"/><rect x="27.041" y="26.909" width="3.536" height="3.536" style="fill:#fcbe12;fill-rule:nonzero;"/><path d="M27.324,30.162l2.97,0l0,-2.97l-2.97,0l0,2.97Zm3.253,0.566l-3.536,0c-0.157,0 -0.283,-0.127 -0.283,-0.283l0,-3.536c0,-0.156 0.126,-0.283 0.283,-0.283l3.536,0c0.156,0 0.283,0.127 0.283,0.283l0,3.536c0,0.156 -0.127,0.283 -0.283,0.283Z" style="fill:#2c5871;fill-rule:nonzero;"/><rect x="32.04" y="35.948" width="2.932" height="0.566" style="fill:#2c5871;fill-rule:nonzero;"/><rect x="32.04" y="37.771" width="2.932" height="0.566" style="fill:#2c5871;fill-rule:nonzero;"/><rect x="27.041" y="34.884" width="3.536" height="3.536" style="fill:#fcbe12;fill-rule:nonzero;"/><path d="M27.324,38.137l2.97,0l0,-2.97l-2.97,0l0,2.97Zm3.253,0.566l-3.536,0c-0.157,0 -0.283,-0.126 -0.283,-0.283l0,-3.536c0,-0.156 0.126,-0.283 0.283,-0.283l3.536,0c0.156,0 0.283,0.127 0.283,0.283l0,3.536c0,0.157 -0.127,0.283 -0.283,0.283Z" style="fill:#2c5871;fill-rule:nonzero;"/><path d="M52.417,40.562c-0.945,0 -1.742,0.629 -1.997,1.492c-0.329,-0.085 -0.669,-0.136 -1.018,-0.157l0,-1.428c0,-1.151 -0.935,-2.086 -2.085,-2.086c-1.15,0 -2.084,0.935 -2.084,2.086l0,1.413l-1.003,0l0,-3.312c0,-1.151 -0.934,-2.083 -2.084,-2.083c-1.152,0 -2.084,0.932 -2.084,2.083l0,3.323c-0.345,0.014 -0.681,0.06 -1.004,0.135l0,-9.9c0,-1.151 -0.934,-2.084 -2.085,-2.084c-1.151,0 -2.084,0.933 -2.084,2.084l0,14.932c-0.003,0.077 -0.012,0.155 -0.012,0.233l0,5.194l-0.961,-0.96l0,-4.162c0,-1.7 -1.377,-3.078 -3.078,-3.078l-1.024,0c-0.044,0 -0.085,0.005 -0.129,0.008l0,3.854c-0.006,-0.001 -0.013,-0.002 -0.02,-0.003l0,5.115l6.902,6.753c0.971,0.923 2.28,1.491 3.723,1.491l8.797,0c2.99,0 5.413,-2.424 5.413,-5.414l0,-3.617l0,-5.181l0,-4.648c0,-1.151 -0.932,-2.083 -2.083,-2.083Z" style="fill:#fff;fill-rule:nonzero;"/><path d="M29.948,53.142l6.817,6.67c0.956,0.909 2.209,1.41 3.525,1.41l8.797,0c2.829,0 5.13,-2.302 5.13,-5.131l0,-13.446c0,-0.993 -0.807,-1.801 -1.8,-1.801c-0.791,0 -1.501,0.531 -1.726,1.29c-0.044,0.146 -0.194,0.231 -0.342,0.194c-0.305,-0.078 -0.629,-0.128 -0.964,-0.148c-0.149,-0.009 -0.266,-0.133 -0.266,-0.283l0,-1.428c0,-0.994 -0.808,-1.803 -1.802,-1.803c-0.993,0 -1.801,0.809 -1.801,1.803l0,1.413c0,0.157 -0.127,0.283 -0.283,0.283l-1.003,0c-0.157,0 -0.283,-0.126 -0.283,-0.283l0,-3.312c0,-0.993 -0.809,-1.8 -1.801,-1.8c-0.994,0 -1.802,0.807 -1.802,1.8l0,3.323c0,0.151 -0.119,0.276 -0.27,0.282c-0.324,0.014 -0.645,0.057 -0.953,0.128c-0.084,0.02 -0.172,0 -0.239,-0.054c-0.068,-0.054 -0.107,-0.135 -0.107,-0.221l0,-9.9c0,-0.993 -0.809,-1.802 -1.802,-1.802c-0.993,0 -1.801,0.809 -1.801,1.802l0,14.932l-0.006,0.105c-0.003,0.042 -0.006,0.085 -0.006,0.128l0,5.194c0,0.115 -0.069,0.218 -0.174,0.261c-0.106,0.044 -0.227,0.02 -0.309,-0.061l-0.961,-0.96c-0.053,-0.053 -0.083,-0.125 -0.083,-0.2l0,-4.162c0,-1.541 -1.254,-2.796 -2.795,-2.796l-0.87,0l0,3.58c0,0.036 -0.007,0.072 -0.02,0.104l0,4.889Zm19.139,8.646l-8.797,0c-1.462,0 -2.854,-0.557 -3.918,-1.569l-6.904,-6.755c-0.055,-0.054 -0.085,-0.127 -0.085,-0.203l0,-5.115c0,-0.036 0.006,-0.071 0.019,-0.104l0,-3.747c0,-0.148 0.114,-0.271 0.262,-0.282l0.032,-0.003c0.039,-0.003 0.078,-0.006 0.118,-0.006l1.024,0c1.853,0 3.361,1.507 3.361,3.361l0,4.044l0.395,0.396l0,-4.512c0,-0.055 0.004,-0.111 0.008,-0.166l0.004,-0.079l0,-14.92c0,-1.305 1.062,-2.367 2.367,-2.367c1.305,0 2.367,1.062 2.367,2.367l0,9.555c0.145,-0.024 0.291,-0.042 0.439,-0.055l0,-3.058c0,-1.304 1.061,-2.366 2.367,-2.366c1.305,0 2.366,1.062 2.366,2.366l0,3.029l0.438,0l0,-1.13c0,-1.306 1.062,-2.369 2.367,-2.369c1.305,0 2.368,1.063 2.368,2.369l0,1.168c0.188,0.019 0.374,0.048 0.554,0.085c0.367,-0.861 1.228,-1.443 2.178,-1.443c1.305,0 2.366,1.061 2.366,2.366l0,13.446c0,3.141 -2.555,5.697 -5.696,5.697Z" style="fill:#392a6a;fill-rule:nonzero;"/><path d="M34.199,48.737l0.395,0l0,-1.444c0,-0.055 0.004,-0.111 0.008,-0.166l0.004,-0.079l0,-14.92c0,-1.305 1.062,-2.367 2.367,-2.367c1.305,0 2.367,1.062 2.367,2.367l0,9.555c0.145,-0.024 0.291,-0.042 0.439,-0.055l0,-3.058c0,-1.304 1.061,-2.366 2.367,-2.366c0.498,0 0.971,0.154 1.365,0.434l0,-23.384c0,-1.597 -1.297,-2.896 -2.892,-2.896l-14.497,0c-1.598,0 -2.897,1.299 -2.897,2.896l0,32.587c0,1.597 1.299,2.896 2.897,2.896l3.261,0l0,-0.591c0,-0.036 0.006,-0.071 0.019,-0.104l0,-3.747c0,-0.148 0.114,-0.271 0.262,-0.282l0.032,-0.003c0.039,-0.003 0.078,-0.006 0.118,-0.006l1.024,0c1.853,0 3.361,1.507 3.361,3.361l0,1.372Zm0.678,0.566l-0.961,0c-0.156,0 -0.283,-0.127 -0.283,-0.283l0,-1.655c0,-1.541 -1.254,-2.796 -2.795,-2.796l-0.87,0l0,3.58c0,0.036 -0.007,0.072 -0.02,0.104l0,0.767c0,0.156 -0.126,0.283 -0.283,0.283l-3.543,0c-1.909,0 -3.462,-1.553 -3.462,-3.462l0,-32.587c0,-1.909 1.553,-3.462 3.462,-3.462l14.497,0c1.906,0 3.458,1.553 3.458,3.462l0,24.045c0,0.121 -0.077,0.229 -0.192,0.268c-0.114,0.038 -0.241,0.001 -0.315,-0.095c-0.345,-0.446 -0.864,-0.702 -1.424,-0.702c-0.994,0 -1.802,0.807 -1.802,1.8l0,3.323c0,0.151 -0.119,0.276 -0.27,0.282c-0.324,0.014 -0.645,0.057 -0.953,0.128c-0.084,0.02 -0.172,0 -0.239,-0.054c-0.068,-0.054 -0.107,-0.135 -0.107,-0.221l0,-9.9c0,-0.993 -0.809,-1.802 -1.802,-1.802c-0.993,0 -1.801,0.809 -1.801,1.802l0,14.932l-0.006,0.105c-0.003,0.042 -0.006,0.085 -0.006,0.128l0,1.727c0,0.156 -0.126,0.283 -0.283,0.283Z" style="fill:#392a6a;fill-rule:nonzero;"/><path d="M39.34,40.707l0.439,0l0,-2.137c0,-1.142 0.796,-2.096 1.89,-2.317l0,-19.65l-16.6,0l0,24.104l9.537,0l0,-8.579c0,-1.305 1.062,-2.367 2.367,-2.367c1.305,0 2.367,1.062 2.367,2.367l0,8.579Zm1.004,0.566l-1.569,0l0,-9.145c0,-0.993 -0.809,-1.802 -1.802,-1.802c-0.993,0 -1.801,0.809 -1.801,1.802l0,9.145l-10.669,0l0,-25.236l17.731,0l0,20.717l-0.256,0.024c-0.931,0.086 -1.634,0.857 -1.634,1.792l0,2.703Z" style="fill:#392a6a;fill-rule:nonzero;"/></g><path d="M50.402,35.262l7.538,0l0,-7.539l-7.538,0l0,7.539Zm7.832,0.588l-8.126,0c-0.163,0 -0.294,-0.131 -0.294,-0.294l0,-8.127c0,-0.162 0.131,-0.294 0.294,-0.294l8.126,0c0.163,0 0.294,0.132 0.294,0.294l0,8.127c0,0.163 -0.131,0.294 -0.294,0.294Z" style="fill:#392a6a;fill-rule:nonzero;"/><rect x="1.556" y="36.914" width="18.09" height="0.588" style="fill:#392a6a;fill-rule:nonzero;"/><path d="M10.969,37.135c0,0.69 -0.56,1.25 -1.25,1.25c-0.691,0 -1.25,-0.56 -1.25,-1.25c0,-0.691 0.559,-1.25 1.25,-1.25c0.69,0 1.25,0.559 1.25,1.25Z" style="fill:#f1fafc;fill-rule:nonzero;"/><path d="M9.719,36.179c-0.527,0 -0.956,0.429 -0.956,0.956c0,0.527 0.429,0.956 0.956,0.956c0.527,0 0.956,-0.429 0.956,-0.956c0,-0.527 -0.429,-0.956 -0.956,-0.956Zm0,2.5c-0.852,0 -1.544,-0.693 -1.544,-1.544c0,-0.852 0.692,-1.544 1.544,-1.544c0.851,0 1.544,0.692 1.544,1.544c0,0.851 -0.693,1.544 -1.544,1.544Z" style="fill:#392a6a;fill-rule:nonzero;"/><path d="M8.671,25.255c-0.606,0.008 -1.131,0.348 -1.417,0.85c-0.299,-0.495 -0.832,-0.822 -1.438,-0.815c-0.921,0.004 -1.657,0.822 -1.644,1.829c0.002,0.195 0.033,0.381 0.089,0.552c0.129,0.567 1.063,1.396 1.926,2.068c0.42,0.324 1.126,0.806 1.126,0.808c0.299,-0.189 0.694,-0.494 1.103,-0.831c0.844,-0.692 1.754,-1.549 1.87,-2.12c0.051,-0.172 0.077,-0.359 0.075,-0.555c-0.013,-1.008 -0.77,-1.805 -1.69,-1.786Z" style="fill:#fcbe12;fill-rule:nonzero;"/><path d="M5.835,25.584c-0.357,0.002 -0.68,0.142 -0.929,0.395c-0.285,0.29 -0.446,0.704 -0.44,1.136c0.002,0.162 0.027,0.319 0.074,0.465c0.057,0.245 0.36,0.783 1.827,1.927c0.289,0.222 0.715,0.52 0.951,0.684c0.242,-0.167 0.553,-0.407 0.911,-0.702c1.486,-1.218 1.732,-1.771 1.768,-1.951c0.051,-0.174 0.072,-0.331 0.07,-0.494c-0.011,-0.824 -0.623,-1.495 -1.364,-1.495c-0.511,0.007 -0.947,0.269 -1.194,0.702l-0.248,0.435l-0.259,-0.429c-0.255,-0.421 -0.691,-0.673 -1.167,-0.673Zm1.184,5.499l0,-0.382c-0.229,-0.16 -0.695,-0.485 -1.012,-0.729c-1.265,-0.986 -1.91,-1.696 -2.033,-2.236c-0.059,-0.177 -0.094,-0.392 -0.096,-0.614c-0.008,-0.587 0.214,-1.154 0.608,-1.556c0.36,-0.366 0.832,-0.568 1.329,-0.57l0,0c0.558,0 1.066,0.224 1.433,0.615c0.361,-0.406 0.868,-0.642 1.419,-0.65l0.036,0c1.062,0 1.937,0.931 1.952,2.076c0.003,0.221 -0.026,0.437 -0.087,0.642c-0.104,0.518 -0.749,1.267 -1.966,2.265c-0.468,0.385 -0.849,0.672 -1.131,0.852l-0.452,0.287Z" style="fill:#392a6a;fill-rule:nonzero;"/><path d="M51.856,19.407c-0.65,0 -1.176,-0.526 -1.176,-1.177c0,-0.649 0.526,-1.176 1.176,-1.176c0.65,0 1.177,0.527 1.177,1.176c0,0.651 -0.527,1.177 -1.177,1.177Zm0,-3.898c-1.503,0 -2.721,1.218 -2.721,2.721c0,1.504 2.721,3.824 2.721,3.824c0,0 2.721,-2.32 2.721,-3.824c0,-1.503 -1.217,-2.721 -2.721,-2.721Z" style="fill:#fcbe12;fill-rule:nonzero;"/><path d="M51.856,17.348c-0.486,0 -0.882,0.396 -0.882,0.882c0,0.487 0.396,0.883 0.882,0.883c0.487,0 0.883,-0.396 0.883,-0.883c0,-0.486 -0.396,-0.882 -0.883,-0.882Zm0,2.353c-0.81,0 -1.471,-0.66 -1.471,-1.471c0,-0.81 0.661,-1.47 1.471,-1.47c0.811,0 1.471,0.66 1.471,1.47c0,0.811 -0.66,1.471 -1.471,1.471Zm0,-3.898c-1.338,0 -2.427,1.089 -2.427,2.427c0,1.035 1.605,2.693 2.427,3.433c0.822,-0.74 2.427,-2.399 2.427,-3.433c0,-1.338 -1.088,-2.427 -2.427,-2.427Zm0,6.638l-0.19,-0.163c-0.29,-0.246 -2.825,-2.454 -2.825,-4.048c0,-1.662 1.352,-3.015 3.015,-3.015c1.663,0 3.016,1.353 3.016,3.015c0,1.594 -2.536,3.802 -2.825,4.048l-0.191,0.163Z" style="fill:#392a6a;fill-rule:nonzero;"/><path d="M51.831,31.467l0.705,2.394l0.918,-0.27l-0.705,-2.395l-0.918,0.271Zm0.506,3.053c-0.127,0 -0.244,-0.083 -0.282,-0.211l-0.872,-2.958c-0.046,-0.156 0.043,-0.319 0.199,-0.365l1.482,-0.438c0.075,-0.022 0.156,-0.013 0.224,0.024c0.069,0.037 0.12,0.1 0.142,0.175l0.871,2.959c0.046,0.156 -0.043,0.32 -0.199,0.366l-1.482,0.436c-0.028,0.008 -0.056,0.012 -0.083,0.012Z" style="fill:#392a6a;fill-rule:nonzero;"/><path d="M54.033,32.637c0.113,0 0.244,0.006 0.394,0.019l0.382,0.033c0.268,0.022 0.503,0.042 0.655,0.062c0.038,0.005 0.083,0.009 0.13,0.009c0.132,0 0.196,-0.028 0.207,-0.038c-0.003,-0.003 0.002,-0.026 0.005,-0.049c0.012,-0.112 0.088,-0.206 0.193,-0.244c0.074,-0.026 0.125,-0.091 0.129,-0.165c0.001,-0.016 0,-0.028 -0.002,-0.044c-0.021,-0.12 0.035,-0.242 0.141,-0.304c0.054,-0.031 0.088,-0.086 0.091,-0.145c0.002,-0.03 -0.003,-0.057 -0.015,-0.084c-0.051,-0.116 -0.023,-0.252 0.072,-0.337c0.041,-0.039 0.091,-0.104 0.091,-0.201c0,-0.152 -0.123,-0.275 -0.274,-0.275l-0.108,0.001c-1.101,0 -1.297,-0.202 -1.371,-0.277c-0.079,-0.082 -0.121,-0.186 -0.119,-0.294c0.001,-0.076 0.005,-0.166 0.013,-0.266l0.019,-0.14c0.008,-0.057 0.017,-0.111 0.021,-0.161c0.034,-0.419 -0.067,-0.627 -0.114,-0.686c-0.013,0.002 -0.028,0.004 -0.041,0.007c0.012,0.2 0.015,0.582 -0.091,0.929c-0.006,0.018 -0.014,0.037 -0.023,0.054c-0.188,0.345 -0.682,0.901 -1.049,1.232l0.405,1.374c0.081,-0.007 0.167,-0.01 0.259,-0.01Zm1.561,0.711c-0.071,0 -0.141,-0.006 -0.203,-0.013c-0.149,-0.019 -0.374,-0.038 -0.631,-0.06l-0.386,-0.033c-0.398,-0.036 -0.636,-0.005 -0.741,0.02c-0.15,0.037 -0.306,-0.052 -0.351,-0.203l-0.531,-1.803c-0.034,-0.114 0.005,-0.238 0.099,-0.313c0.305,-0.243 0.85,-0.836 1.036,-1.158c0.098,-0.345 0.053,-0.766 0.051,-0.784c-0.014,-0.121 0.024,-0.239 0.106,-0.331c0.181,-0.204 0.528,-0.21 0.566,-0.21c0.141,0 0.28,0.066 0.39,0.185c0.214,0.232 0.314,0.648 0.274,1.141c-0.005,0.062 -0.015,0.129 -0.025,0.198l-0.016,0.115c-0.003,0.034 -0.005,0.069 -0.006,0.104c0.129,0.039 0.427,0.083 0.898,0.083l0.101,-0.001l0,0c0.483,0 0.87,0.388 0.87,0.864c0,0.179 -0.055,0.349 -0.157,0.492c0.009,0.054 0.011,0.109 0.008,0.165c-0.01,0.191 -0.094,0.37 -0.231,0.504c-0.016,0.244 -0.152,0.466 -0.361,0.597c-0.003,0.013 -0.008,0.025 -0.013,0.037c-0.056,0.152 -0.228,0.404 -0.747,0.404Z" style="fill:#392a6a;fill-rule:nonzero;"/></g></g><defs><linearGradient id="_Linear1" x1="0" y1="0" x2="1" y2="0" gradientUnits="userSpaceOnUse" gradientTransform="matrix(84.2705,9.1248,-9.1248,84.2705,-10.964,32.3594)"><stop offset="0" style="stop-color:#925ecd;stop-opacity:1"/><stop offset="1" style="stop-color:#6032d4;stop-opacity:1"/></linearGradient></defs></svg>