<?xml version="1.0" encoding="UTF-8" standalone="no"?><!DOCTYPE svg PUBLIC "-//W3C//DTD SVG 1.1//EN" "http://www.w3.org/Graphics/SVG/1.1/DTD/svg11.dtd"><svg width="100%" height="100%" viewBox="0 0 45 46" version="1.1" xmlns="http://www.w3.org/2000/svg" xmlns:xlink="http://www.w3.org/1999/xlink" xml:space="preserve" xmlns:serif="http://www.serif.com/" style="fill-rule:evenodd;clip-rule:evenodd;stroke-linejoin:round;stroke-miterlimit:1.41421;"><g id="experience-icon-line"><path d="M22.5,1.324c-11.856,0 -21.5,9.644 -21.5,21.5c0,11.854 9.644,21.498 21.5,21.498c11.855,0 21.5,-9.644 21.5,-21.498c0,-11.856 -9.645,-21.5 -21.5,-21.5Zm0,43.998c-12.406,0 -22.5,-10.093 -22.5,-22.498c0,-12.407 10.094,-22.5 22.5,-22.5c12.406,0 22.5,10.093 22.5,22.5c0,12.405 -10.094,22.498 -22.5,22.498Z" style="fill:#402d94;fill-rule:nonzero;"/><path d="M12.113,33.208l20.772,0l0,-20.771l-20.772,0l0,20.771Zm21.272,1l-21.772,0c-0.276,0 -0.5,-0.224 -0.5,-0.5l0,-21.771c0,-0.276 0.224,-0.5 0.5,-0.5l21.772,0c0.276,0 0.5,0.224 0.5,0.5l0,21.771c0,0.276 -0.224,0.5 -0.5,0.5Z" style="fill:#402d94;fill-rule:nonzero;"/><path d="M33.027,18.268l-21.056,0c-0.277,0 -0.5,-0.224 -0.5,-0.5c0,-0.278 0.223,-0.5 0.5,-0.5l21.056,0c0.277,0 0.5,0.222 0.5,0.5c0,0.276 -0.223,0.5 -0.5,0.5Z" style="fill:#402d94;fill-rule:nonzero;"/><path d="M14.544,13.748c-0.611,0 -1.104,0.494 -1.104,1.104c0,0.61 0.493,1.103 1.104,1.103c0.609,0 1.103,-0.493 1.103,-1.103c0,-0.61 -0.494,-1.104 -1.103,-1.104Z" style="fill:#402d94;fill-rule:nonzero;"/><path d="M17.721,13.748c-0.61,0 -1.104,0.494 -1.104,1.104c0,0.61 0.494,1.103 1.104,1.103c0.609,0 1.103,-0.493 1.103,-1.103c0,-0.61 -0.494,-1.104 -1.103,-1.104Z" style="fill:#402d94;fill-rule:nonzero;"/><path d="M20.896,13.748c-0.608,0 -1.103,0.494 -1.103,1.104c0,0.61 0.495,1.103 1.103,1.103c0.612,0 1.106,-0.493 1.106,-1.103c0,-0.61 -0.494,-1.104 -1.106,-1.104Z" style="fill:#402d94;fill-rule:nonzero;"/><path d="M22.5,22.277l-6.832,0c-0.277,0 -0.5,-0.224 -0.5,-0.5c0,-0.276 0.223,-0.5 0.5,-0.5l6.832,0c0.276,0 0.5,0.224 0.5,0.5c0,0.276 -0.224,0.5 -0.5,0.5Z" style="fill:#402d94;fill-rule:nonzero;"/><path d="M22.5,25.442l-6.832,0c-0.277,0 -0.5,-0.223 -0.5,-0.5c0,-0.276 0.223,-0.5 0.5,-0.5l6.832,0c0.276,0 0.5,0.224 0.5,0.5c0,0.277 -0.224,0.5 -0.5,0.5Z" style="fill:#402d94;fill-rule:nonzero;"/><path d="M22.5,28.61l-6.832,0c-0.277,0 -0.5,-0.223 -0.5,-0.5c0,-0.276 0.223,-0.5 0.5,-0.5l6.832,0c0.276,0 0.5,0.224 0.5,0.5c0,0.277 -0.224,0.5 -0.5,0.5Z" style="fill:#402d94;fill-rule:nonzero;"/><path d="M25.5,27.61l3.334,0l0,-5.333l-3.334,0l0,5.333Zm3.834,1l-4.334,0c-0.277,0 -0.5,-0.223 -0.5,-0.5l0,-6.333c0,-0.276 0.223,-0.5 0.5,-0.5l4.334,0c0.276,0 0.5,0.224 0.5,0.5l0,6.333c0,0.277 -0.224,0.5 -0.5,0.5Z" style="fill:#402d94;fill-rule:nonzero;"/></g></svg>