<?xml version="1.0" encoding="UTF-8" standalone="no"?><!DOCTYPE svg PUBLIC "-//W3C//DTD SVG 1.1//EN" "http://www.w3.org/Graphics/SVG/1.1/DTD/svg11.dtd"><svg width="100%" height="100%" viewBox="0 0 46 45" version="1.1" xmlns="http://www.w3.org/2000/svg" xmlns:xlink="http://www.w3.org/1999/xlink" xml:space="preserve" xmlns:serif="http://www.serif.com/" style="fill-rule:evenodd;clip-rule:evenodd;stroke-linejoin:round;stroke-miterlimit:1.41421;"><g id="idea-icon-line"><path d="M22.975,1c-11.856,0 -21.5,9.644 -21.5,21.5c0,11.855 9.644,21.5 21.5,21.5c11.855,0 21.5,-9.645 21.5,-21.5c0,-11.856 -9.645,-21.5 -21.5,-21.5Zm0,44c-12.406,0 -22.5,-10.094 -22.5,-22.5c0,-12.406 10.094,-22.5 22.5,-22.5c12.406,0 22.5,10.094 22.5,22.5c0,12.406 -10.094,22.5 -22.5,22.5Z" style="fill:#402d94;fill-rule:nonzero;"/><path d="M19.732,28.741l6.508,0c0.006,-0.769 0.113,-2.186 0.766,-3.059c2.787,-3.587 2.865,-6.916 2.865,-6.949c0,-3.802 -3.094,-6.896 -6.896,-6.896c-3.803,0 -6.897,3.094 -6.897,6.896c0,0.033 0.079,3.362 2.858,6.942c0.661,0.878 0.782,2.299 0.796,3.066Zm7.02,1l-7.527,0c-0.138,0 -0.27,-0.057 -0.365,-0.157c-0.093,-0.101 -0.142,-0.235 -0.134,-0.373c0.033,-0.555 -0.008,-2.163 -0.584,-2.929c-2.981,-3.839 -3.064,-7.513 -3.064,-7.549c0,-4.354 3.542,-7.896 7.897,-7.896c4.354,0 7.896,3.542 7.896,7.896c0,0.036 -0.084,3.712 -3.07,7.555c-0.567,0.76 -0.59,2.364 -0.55,2.917c0.01,0.139 -0.038,0.275 -0.133,0.377c-0.094,0.101 -0.227,0.159 -0.366,0.159Z" style="fill:#402d94;fill-rule:nonzero;"/><path d="M26.893,31.968l-7.836,0c-0.277,0 -0.5,-0.224 -0.5,-0.5c0,-0.277 0.223,-0.5 0.5,-0.5l7.836,0c0.276,0 0.5,0.223 0.5,0.5c0,0.276 -0.224,0.5 -0.5,0.5Z" style="fill:#402d94;fill-rule:nonzero;"/><path d="M25.945,34.163l-5.941,0c-0.276,0 -0.5,-0.224 -0.5,-0.5c0,-0.276 0.224,-0.5 0.5,-0.5l5.941,0c0.277,0 0.5,0.224 0.5,0.5c0,0.276 -0.223,0.5 -0.5,0.5Z" style="fill:#402d94;fill-rule:nonzero;"/><path d="M21.184,29.108l-1.266,-10.449l0.992,-0.121l1.266,10.449l-0.992,0.121Z" style="fill:#402d94;fill-rule:nonzero;"/><path d="M24.766,29.108l-0.992,-0.121l1.265,-10.449l0.992,0.121l-1.265,10.449Z" style="fill:#402d94;fill-rule:nonzero;"/><path d="M24.754,21.169c-0.306,0 -0.495,-0.177 -0.616,-0.36c-0.121,0.183 -0.311,0.36 -0.616,0.36c-0.304,0 -0.493,-0.175 -0.614,-0.357c-0.12,0.182 -0.308,0.357 -0.612,0.357c-0.304,0 -0.492,-0.175 -0.612,-0.357c-0.121,0.182 -0.31,0.357 -0.614,0.357c-0.478,0 -0.67,-0.435 -0.763,-0.643c-0.022,-0.049 -0.054,-0.121 -0.07,-0.143c0.022,0.031 0.105,0.094 0.22,0.094l0,-1c0.304,0 0.492,0.175 0.613,0.357c0.122,-0.182 0.31,-0.357 0.614,-0.357c0.302,0 0.491,0.174 0.612,0.355c0.12,-0.181 0.308,-0.355 0.61,-0.355c0.305,0 0.495,0.176 0.616,0.358c0.121,-0.182 0.31,-0.358 0.615,-0.358c0.307,0 0.496,0.178 0.617,0.361c0.121,-0.183 0.311,-0.361 0.617,-0.361l0,1c0.114,0 0.197,-0.063 0.218,-0.093c-0.016,0.022 -0.048,0.094 -0.069,0.143c-0.094,0.208 -0.287,0.642 -0.766,0.642Z" style="fill:#402d94;fill-rule:nonzero;"/></g></svg>