<?xml version="1.0" encoding="UTF-8" standalone="no"?><!DOCTYPE svg PUBLIC "-//W3C//DTD SVG 1.1//EN" "http://www.w3.org/Graphics/SVG/1.1/DTD/svg11.dtd"><svg width="100%" height="100%" viewBox="0 0 72 72" version="1.1" xmlns="http://www.w3.org/2000/svg" xmlns:xlink="http://www.w3.org/1999/xlink" xml:space="preserve" xmlns:serif="http://www.serif.com/" style="fill-rule:evenodd;clip-rule:evenodd;stroke-linejoin:round;stroke-miterlimit:1.41421;"><g id="ideas-icon"><rect x="0" y="0" width="72" height="72" style="fill:#fff;"/><circle cx="36.369" cy="36" r="27.656" style="fill:url(#_Linear1);"/><g><path d="M47.172,34.337c0,-5.97 -4.835,-10.803 -10.803,-10.803c-5.97,0 -10.804,4.833 -10.804,10.803c0,0.353 0.259,5.347 4.328,10.587c1.192,1.582 0.996,4.762 0.986,4.762l11.006,0c-0.011,0 -0.228,-3.18 0.958,-4.762c4.077,-5.247 4.329,-10.234 4.329,-10.587Z" style="fill:#cceef5;fill-rule:nonzero;"/><path d="M31.283,49.686l10.196,0c-0.039,-1.052 0.08,-3.308 1.053,-4.606c4.136,-5.324 4.252,-10.306 4.252,-10.355c0,-5.742 -4.672,-10.415 -10.415,-10.415c-5.743,0 -10.416,4.673 -10.416,10.415c0,0.049 0.116,5.03 4.247,10.35c0.984,1.306 1.116,3.56 1.083,4.611Zm10.602,0.777l-11.006,0c-0.215,0 -0.389,-0.174 -0.389,-0.388c0,-0.02 0.001,-0.039 0.004,-0.057c0.011,-0.161 0.158,-3.052 -0.911,-4.471c-4.287,-5.52 -4.406,-10.77 -4.406,-10.822c0,-6.171 5.021,-11.191 11.192,-11.191c6.171,0 11.192,5.02 11.192,11.191c0,0.052 -0.12,5.303 -4.411,10.826c-1.061,1.415 -0.892,4.301 -0.881,4.463c0.004,0.02 0.004,0.04 0.004,0.061c0,0.214 -0.173,0.388 -0.388,0.388Z" style="fill:#392a6a;fill-rule:nonzero;"/><path d="M28.334,34.722c-0.214,0 -0.388,-0.174 -0.388,-0.388c0,-4.642 3.779,-8.42 8.423,-8.42c0.215,0 0.388,0.174 0.388,0.389c0,0.214 -0.173,0.388 -0.388,0.388c-4.216,0 -7.646,3.429 -7.646,7.643c0,0.214 -0.174,0.388 -0.389,0.388Z" style="fill:#392a6a;fill-rule:nonzero;"/><path d="M42.091,51.729l-11.445,0c-0.215,0 -0.389,-0.173 -0.389,-0.388c0,-0.215 0.174,-0.389 0.389,-0.389l11.445,0c0.215,0 0.389,0.174 0.389,0.389c0,0.215 -0.174,0.388 -0.389,0.388Z" style="fill:#392a6a;fill-rule:nonzero;"/><path d="M42.091,53.575l-11.445,0c-0.215,0 -0.389,-0.174 -0.389,-0.389c0,-0.214 0.174,-0.388 0.389,-0.388l11.445,0c0.215,0 0.389,0.174 0.389,0.388c0,0.215 -0.174,0.389 -0.389,0.389Z" style="fill:#392a6a;fill-rule:nonzero;"/><path d="M42.091,55.421l-11.445,0c-0.215,0 -0.389,-0.174 -0.389,-0.388c0,-0.215 0.174,-0.389 0.389,-0.389l11.445,0c0.215,0 0.389,0.174 0.389,0.389c0,0.214 -0.174,0.388 -0.389,0.388Z" style="fill:#392a6a;fill-rule:nonzero;"/><path d="M40.706,57.451l-8.676,0c-0.214,0 -0.388,-0.174 -0.388,-0.388c0,-0.215 0.174,-0.389 0.388,-0.389l8.676,0c0.215,0 0.389,0.174 0.389,0.389c0,0.214 -0.174,0.388 -0.389,0.388Z" style="fill:#392a6a;fill-rule:nonzero;"/><path d="M34.094,49.465l-1.847,-11.168l0.767,-0.127l1.846,11.168l-0.766,0.127Z" style="fill:#392a6a;fill-rule:nonzero;"/><path d="M38.644,49.465l-0.766,-0.127l1.846,-11.168l0.766,0.127l-1.846,11.168Z" style="fill:#392a6a;fill-rule:nonzero;"/><path d="M38.969,40.641c-0.477,0 -0.674,-0.442 -0.804,-0.734c-0.025,-0.057 -0.061,-0.136 -0.094,-0.199c-0.034,0.063 -0.069,0.142 -0.094,0.199c-0.13,0.292 -0.327,0.734 -0.804,0.734c-0.477,0 -0.674,-0.442 -0.804,-0.734c-0.025,-0.057 -0.059,-0.136 -0.093,-0.199c-0.033,0.063 -0.068,0.142 -0.093,0.199c-0.13,0.292 -0.327,0.734 -0.804,0.734c-0.476,0 -0.673,-0.442 -0.803,-0.734c-0.025,-0.057 -0.059,-0.135 -0.092,-0.197c-0.033,0.062 -0.068,0.14 -0.093,0.196c-0.13,0.293 -0.326,0.735 -0.803,0.735c-0.476,0 -0.672,-0.442 -0.803,-0.734c-0.043,-0.097 -0.114,-0.258 -0.156,-0.294c0.007,0.006 0.033,0.02 0.063,0.02l0,-0.777c0.477,0 0.673,0.442 0.803,0.735c0.025,0.056 0.06,0.135 0.093,0.197c0.033,-0.062 0.068,-0.141 0.093,-0.197c0.129,-0.293 0.326,-0.735 0.802,-0.735c0.476,0 0.673,0.442 0.803,0.735c0.025,0.056 0.06,0.135 0.093,0.198c0.034,-0.063 0.069,-0.142 0.094,-0.198c0.13,-0.293 0.327,-0.735 0.803,-0.735c0.477,0 0.673,0.442 0.803,0.735c0.026,0.056 0.061,0.136 0.094,0.199c0.034,-0.063 0.069,-0.143 0.094,-0.199c0.13,-0.293 0.327,-0.735 0.803,-0.735c0.477,0 0.674,0.442 0.804,0.735c0.026,0.057 0.062,0.137 0.095,0.2c0.034,-0.063 0.07,-0.143 0.095,-0.2c0.13,-0.293 0.328,-0.735 0.804,-0.735l0,0.777c0.029,0 0.055,-0.014 0.062,-0.02c-0.042,0.036 -0.114,0.198 -0.157,0.294c-0.13,0.292 -0.327,0.734 -0.804,0.734Z" style="fill:#392a6a;fill-rule:nonzero;"/><path d="M36.369,18.785c-0.214,0 -0.388,-0.174 -0.388,-0.388l0,-4.09c0,-0.215 0.174,-0.389 0.388,-0.389c0.215,0 0.388,0.174 0.388,0.389l0,4.09c0,0.214 -0.173,0.388 -0.388,0.388Z" style="fill:#392a6a;fill-rule:nonzero;"/><path d="M57.149,35.475l-4.091,0c-0.214,0 -0.388,-0.174 -0.388,-0.388c0,-0.215 0.174,-0.388 0.388,-0.388l4.091,0c0.215,0 0.389,0.173 0.389,0.388c0,0.214 -0.174,0.388 -0.389,0.388Z" style="fill:#392a6a;fill-rule:nonzero;"/><path d="M19.679,35.475l-4.09,0c-0.215,0 -0.389,-0.174 -0.389,-0.388c0,-0.215 0.174,-0.388 0.389,-0.388l4.09,0c0.215,0 0.389,0.173 0.389,0.388c0,0.214 -0.174,0.388 -0.389,0.388Z" style="fill:#392a6a;fill-rule:nonzero;"/><path d="M48.171,23.674c-0.1,0 -0.199,-0.038 -0.275,-0.114c-0.152,-0.152 -0.152,-0.398 0,-0.549l2.893,-2.893c0.151,-0.152 0.397,-0.152 0.549,0c0.152,0.152 0.152,0.397 0,0.549l-2.893,2.893c-0.075,0.076 -0.175,0.114 -0.274,0.114Z" style="fill:#392a6a;fill-rule:nonzero;"/><path d="M21.675,50.169c-0.1,0 -0.199,-0.038 -0.275,-0.113c-0.151,-0.152 -0.151,-0.398 0,-0.55l2.893,-2.892c0.151,-0.152 0.397,-0.152 0.549,0c0.152,0.152 0.152,0.397 0,0.549l-2.893,2.893c-0.075,0.075 -0.175,0.113 -0.274,0.113Z" style="fill:#392a6a;fill-rule:nonzero;"/><path d="M51.063,50.169c-0.099,0 -0.198,-0.038 -0.274,-0.113l-2.893,-2.893c-0.152,-0.152 -0.152,-0.397 0,-0.549c0.152,-0.152 0.397,-0.152 0.549,0l2.893,2.892c0.152,0.152 0.152,0.398 0,0.55c-0.076,0.075 -0.175,0.113 -0.275,0.113Z" style="fill:#392a6a;fill-rule:nonzero;"/><path d="M24.567,23.674c-0.099,0 -0.198,-0.038 -0.274,-0.114l-2.893,-2.893c-0.151,-0.152 -0.151,-0.397 0,-0.549c0.152,-0.152 0.398,-0.152 0.549,0l2.893,2.893c0.152,0.151 0.152,0.397 0,0.549c-0.076,0.076 -0.175,0.114 -0.275,0.114Z" style="fill:#392a6a;fill-rule:nonzero;"/><path d="M26.954,12.081l-0.054,0.924l0.923,-0.054l4.114,-4.114l-0.868,-0.869l-4.115,4.113Zm-0.467,1.726c-0.103,0 -0.202,-0.041 -0.274,-0.114c-0.079,-0.078 -0.12,-0.186 -0.113,-0.297l0.088,-1.507c0.005,-0.095 0.046,-0.185 0.113,-0.252l4.493,-4.493c0.073,-0.073 0.171,-0.114 0.275,-0.114c0.103,0 0.201,0.041 0.274,0.114l1.418,1.418c0.073,0.073 0.114,0.172 0.114,0.275c0,0.102 -0.041,0.202 -0.114,0.274l-4.493,4.494c-0.067,0.068 -0.157,0.108 -0.252,0.114l-1.506,0.088c-0.008,0 -0.015,0 -0.023,0Z" style="fill:#392a6a;fill-rule:nonzero;"/><path d="M31.687,9.688c-0.05,0 -0.1,-0.018 -0.138,-0.056l-1.275,-1.276c-0.076,-0.076 -0.076,-0.198 0,-0.274c0.076,-0.076 0.199,-0.076 0.274,0l1.276,1.275c0.076,0.076 0.076,0.199 0,0.275c-0.038,0.038 -0.087,0.056 -0.137,0.056Z" style="fill:#392a6a;fill-rule:nonzero;"/><path d="M27.52,12.58c-0.05,0 -0.1,-0.019 -0.138,-0.057c-0.076,-0.075 -0.076,-0.198 0,-0.274l3.507,-3.507c0.076,-0.076 0.199,-0.076 0.275,0c0.075,0.075 0.075,0.199 0,0.274l-3.507,3.507c-0.038,0.038 -0.088,0.057 -0.137,0.057Z" style="fill:#392a6a;fill-rule:nonzero;"/><path d="M26.721,12.88l-0.02,0.339l0.319,-0.019c-0.008,-0.081 -0.039,-0.156 -0.091,-0.213c-0.052,-0.057 -0.125,-0.094 -0.208,-0.107Zm-0.227,0.741c-0.051,0 -0.1,-0.021 -0.137,-0.057c-0.04,-0.04 -0.06,-0.094 -0.057,-0.149l0.043,-0.732c0.006,-0.09 0.073,-0.165 0.164,-0.18c0.027,-0.006 0.045,-0.01 0.063,-0.012c0.033,-0.003 0.058,-0.004 0.084,-0.004c0.222,0 0.421,0.084 0.562,0.238c0.142,0.156 0.21,0.367 0.19,0.595c-0.005,0.038 -0.011,0.066 -0.018,0.093c-0.02,0.084 -0.095,0.16 -0.181,0.165l-0.701,0.042c-0.004,0 -0.008,0.001 -0.012,0.001Z" style="fill:#392a6a;fill-rule:nonzero;"/><path d="M30.815,16.332l-7.446,0l0,-6.409l2.331,-2.331l4.727,0c0.214,0 0.388,0.174 0.388,0.389c0,0.214 -0.174,0.388 -0.388,0.388l-4.405,0l-1.877,1.877l0,5.309l5.893,0l0,-4.564c0,-0.214 0.174,-0.388 0.389,-0.388c0.214,0 0.388,0.174 0.388,0.388l0,5.341Z" style="fill:#392a6a;fill-rule:nonzero;"/><path d="M26.056,10.279l-2.299,0c-0.108,0 -0.194,-0.087 -0.194,-0.194c0,-0.108 0.086,-0.195 0.194,-0.195l1.91,0l0,-1.909c0,-0.107 0.087,-0.194 0.194,-0.194c0.108,0 0.195,0.087 0.195,0.194l0,2.298Z" style="fill:#392a6a;fill-rule:nonzero;"/><path d="M10.338,30.476c-1.303,0 -2.363,-1.059 -2.363,-2.363c0,-0.78 0.392,-1.505 1.036,-1.944l0,-2.749c0,-0.214 0.173,-0.388 0.388,-0.388c0.214,0 0.389,0.174 0.389,0.388l0,2.967c0,0.142 -0.078,0.272 -0.203,0.341c-0.514,0.28 -0.833,0.811 -0.833,1.385c0,0.875 0.712,1.587 1.586,1.587c0.875,0 1.586,-0.712 1.586,-1.587c0,-0.574 -0.32,-1.105 -0.833,-1.385c-0.125,-0.069 -0.203,-0.199 -0.203,-0.341l0,-2.967c0,-0.214 0.174,-0.388 0.389,-0.388c0.214,0 0.388,0.174 0.388,0.388l0,2.749c0.644,0.439 1.036,1.164 1.036,1.944c0,1.304 -1.06,2.363 -2.363,2.363Z" style="fill:#392a6a;fill-rule:nonzero;"/><path d="M9.282,23.809l-0.388,0c-0.215,0 -0.389,-0.174 -0.389,-0.389c0,-0.214 0.174,-0.388 0.389,-0.388l0.388,0c0.215,0 0.389,0.174 0.389,0.388c0,0.215 -0.174,0.389 -0.389,0.389Z" style="fill:#392a6a;fill-rule:nonzero;"/><path d="M11.782,23.809l-0.388,0c-0.214,0 -0.388,-0.174 -0.388,-0.389c0,-0.214 0.174,-0.388 0.388,-0.388l0.388,0c0.215,0 0.389,0.174 0.389,0.388c0,0.215 -0.174,0.389 -0.389,0.389Z" style="fill:#392a6a;fill-rule:nonzero;"/><path d="M11.194,21.365c-0.215,0 -0.389,0.174 -0.389,0.388c0,0.214 0.174,0.388 0.389,0.388c0.214,0 0.388,-0.174 0.388,-0.388c0,-0.214 -0.174,-0.388 -0.388,-0.388Zm0,1.165c-0.429,0 -0.777,-0.349 -0.777,-0.777c0,-0.428 0.348,-0.777 0.777,-0.777c0.428,0 0.776,0.349 0.776,0.777c0,0.428 -0.348,0.777 -0.776,0.777Z" style="fill:#392a6a;fill-rule:nonzero;"/><path d="M10.069,22.28c-0.161,0 -0.292,0.13 -0.292,0.291c0,0.161 0.131,0.291 0.292,0.291c0.161,0 0.291,-0.13 0.291,-0.291c0,-0.161 -0.13,-0.291 -0.291,-0.291Z" style="fill:#392a6a;fill-rule:nonzero;"/><path d="M60.532,24.536c-0.099,0 -0.198,-0.038 -0.275,-0.114c-0.151,-0.152 -0.151,-0.398 0,-0.549l1.228,-1.229l-1.228,-1.23c-0.151,-0.151 -0.151,-0.397 0,-0.549c0.152,-0.151 0.398,-0.151 0.55,0l1.502,1.504c0.152,0.152 0.152,0.397 0,0.549l-1.502,1.504c-0.076,0.076 -0.176,0.114 -0.275,0.114Z" style="fill:#392a6a;fill-rule:nonzero;"/><path d="M61.546,29.577l-6.471,0c-0.798,0 -1.447,-0.65 -1.447,-1.448l0,-4.435c0,-0.798 0.649,-1.447 1.447,-1.447l2.395,0c0.2,0 0.362,0.162 0.362,0.362c0,0.2 -0.162,0.362 -0.362,0.362l-2.395,0c-0.399,0 -0.723,0.324 -0.723,0.723l0,4.435c0,0.399 0.324,0.724 0.723,0.724l6.471,0c0.399,0 0.724,-0.325 0.724,-0.724l0,-4.435c0,-0.2 0.162,-0.362 0.362,-0.362c0.2,0 0.362,0.162 0.362,0.362l0,4.435c0,0.798 -0.65,1.448 -1.448,1.448Z" style="fill:#392a6a;fill-rule:nonzero;"/><path d="M55.422,28.086c-0.024,0 -0.049,-0.003 -0.073,-0.007c-0.211,-0.041 -0.349,-0.245 -0.308,-0.455c0.601,-3.111 3.318,-5.369 6.459,-5.369c0.215,0 0.388,0.174 0.388,0.389c0,0.214 -0.173,0.388 -0.388,0.388c-2.769,0 -5.165,1.993 -5.697,4.739c-0.035,0.186 -0.198,0.315 -0.381,0.315Z" style="fill:#392a6a;fill-rule:nonzero;"/><path d="M12.051,41.806c-1.706,0.001 -3.095,1.39 -3.095,3.097c0,1.705 1.388,3.093 3.094,3.093c1.707,0 3.097,-1.388 3.097,-3.094c-0.001,-1.707 -1.39,-3.096 -3.096,-3.096Zm-0.001,6.967c-2.134,0 -3.871,-1.736 -3.871,-3.87c0,-2.136 1.737,-3.873 3.872,-3.874c2.134,0 3.872,1.737 3.872,3.873c0,2.134 -1.737,3.871 -3.873,3.871Z" style="fill:#392a6a;fill-rule:nonzero;"/><path d="M9.873,44.901l-0.388,0c0,-1.415 1.151,-2.566 2.566,-2.566l0,0.388c-1.201,0 -2.178,0.977 -2.178,2.178Z" style="fill:#392a6a;fill-rule:nonzero;"/><path d="M16.664,50.053c-0.099,0 -0.198,-0.037 -0.274,-0.114l-2.163,-2.162c-0.152,-0.151 -0.152,-0.397 0,-0.549c0.152,-0.152 0.397,-0.152 0.549,0l2.163,2.162c0.152,0.152 0.152,0.398 0,0.549c-0.076,0.077 -0.175,0.114 -0.275,0.114Z" style="fill:#392a6a;fill-rule:nonzero;"/><path d="M53.876,43.391c0.544,1.486 2.003,2.476 3.673,2.476c1.67,0 3.13,-0.99 3.673,-2.476c-0.543,-1.487 -2.003,-2.477 -3.673,-2.477c-1.669,0 -3.129,0.99 -3.673,2.477Zm3.673,3.253c-2.052,0 -3.841,-1.259 -4.453,-3.133c-0.026,-0.078 -0.026,-0.163 0,-0.241c0.612,-1.873 2.401,-3.132 4.453,-3.132c2.052,0 3.841,1.259 4.453,3.132c0.026,0.078 0.026,0.163 0,0.241c-0.611,1.874 -2.401,3.133 -4.453,3.133Z" style="fill:#392a6a;fill-rule:nonzero;"/><path d="M57.549,45.495c-1.16,0 -2.104,-0.944 -2.104,-2.104c0,-0.215 0.174,-0.389 0.388,-0.389c0.215,0 0.389,0.174 0.389,0.389c0,0.732 0.595,1.327 1.327,1.327c0.732,0 1.327,-0.595 1.327,-1.327c0,-0.732 -0.595,-1.327 -1.327,-1.327c-0.214,0 -0.388,-0.174 -0.388,-0.389c0,-0.214 0.174,-0.388 0.388,-0.388c1.16,0 2.104,0.944 2.104,2.104c0,1.16 -0.944,2.104 -2.104,2.104Z" style="fill:#392a6a;fill-rule:nonzero;"/><path d="M46.058,7.665c-0.875,0 -1.698,0.341 -2.316,0.96c-0.619,0.619 -0.96,1.441 -0.96,2.316c0,0.874 0.342,1.697 0.961,2.315c0.618,0.619 1.44,0.96 2.315,0.96c0.875,0 1.697,-0.341 2.315,-0.96c0.619,-0.618 0.959,-1.44 0.959,-2.315c0,-0.875 -0.34,-1.697 -0.959,-2.317c-0.618,-0.618 -1.44,-0.959 -2.315,-0.959Zm0,7.328c-1.082,0 -2.1,-0.422 -2.865,-1.188c-0.765,-0.765 -1.187,-1.782 -1.188,-2.864c0,-1.083 0.422,-2.1 1.188,-2.865c0.764,-0.766 1.782,-1.187 2.865,-1.187c1.082,0 2.099,0.421 2.865,1.186c0.765,0.766 1.186,1.784 1.186,2.866c0,1.083 -0.421,2.1 -1.186,2.865c-0.765,0.765 -1.783,1.187 -2.865,1.187Z" style="fill:#392a6a;fill-rule:nonzero;"/><path d="M46.058,15.633c-0.108,0 -0.194,-0.086 -0.194,-0.194l0,-8.998c0,-0.107 0.086,-0.194 0.194,-0.194c0.107,0 0.194,0.087 0.194,0.194l0,8.998c0,0.108 -0.087,0.194 -0.194,0.194Z" style="fill:#392a6a;fill-rule:nonzero;"/><path d="M50.557,11.135l-8.999,0c-0.107,0 -0.194,-0.087 -0.194,-0.194c0,-0.108 0.087,-0.195 0.194,-0.195l8.999,0c0.107,0 0.194,0.087 0.194,0.195c0,0.107 -0.087,0.194 -0.194,0.194Z" style="fill:#392a6a;fill-rule:nonzero;"/></g></g><defs><linearGradient id="_Linear1" x1="0" y1="0" x2="1" y2="0" gradientUnits="userSpaceOnUse" gradientTransform="matrix(84.2705,9.1248,-9.1248,84.2705,-11.0706,32.3594)"><stop offset="0" style="stop-color:#925ecd;stop-opacity:1"/><stop offset="1" style="stop-color:#6032d4;stop-opacity:1"/></linearGradient></defs></svg>