<?xml version="1.0" encoding="UTF-8" standalone="no"?><!DOCTYPE svg PUBLIC "-//W3C//DTD SVG 1.1//EN" "http://www.w3.org/Graphics/SVG/1.1/DTD/svg11.dtd"><svg width="100%" height="100%" viewBox="0 0 46 46" version="1.1" xmlns="http://www.w3.org/2000/svg" xmlns:xlink="http://www.w3.org/1999/xlink" xml:space="preserve" xmlns:serif="http://www.serif.com/" style="fill-rule:evenodd;clip-rule:evenodd;stroke-linejoin:round;stroke-miterlimit:1.41421;"><g id="increase-icon-line"><path d="M22.959,1.323c-11.855,0 -21.5,9.644 -21.5,21.5c0,11.855 9.645,21.5 21.5,21.5c11.855,0 21.5,-9.645 21.5,-21.5c0,-11.856 -9.645,-21.5 -21.5,-21.5Zm0,44c-12.407,0 -22.5,-10.094 -22.5,-22.5c0,-12.406 10.093,-22.5 22.5,-22.5c12.407,0 22.5,10.094 22.5,22.5c0,12.406 -10.093,22.5 -22.5,22.5Z" style="fill:#402d94;fill-rule:nonzero;"/><path d="M29.543,35.294l4.332,0l0,-15.026l-4.332,0l0,15.026Zm4.832,1l-5.332,0c-0.276,0 -0.5,-0.224 -0.5,-0.5l0,-16.026c0,-0.276 0.224,-0.5 0.5,-0.5l5.332,0c0.276,0 0.5,0.224 0.5,0.5l0,16.026c0,0.276 -0.224,0.5 -0.5,0.5Z" style="fill:#402d94;fill-rule:nonzero;"/><path d="M20.793,35.294l4.332,0l0,-8.168l-4.332,0l0,8.168Zm4.832,1l-5.332,0c-0.276,0 -0.5,-0.224 -0.5,-0.5l0,-9.168c0,-0.277 0.224,-0.5 0.5,-0.5l5.332,0c0.276,0 0.5,0.223 0.5,0.5l0,9.168c0,0.276 -0.224,0.5 -0.5,0.5Z" style="fill:#402d94;fill-rule:nonzero;"/><path d="M12.043,35.294l4.332,0l0,-3.193l-4.332,0l0,3.193Zm4.832,1l-5.332,0c-0.276,0 -0.5,-0.224 -0.5,-0.5l0,-4.193c0,-0.276 0.224,-0.5 0.5,-0.5l5.332,0c0.276,0 0.5,0.224 0.5,0.5l0,4.193c0,0.276 -0.224,0.5 -0.5,0.5Z" style="fill:#402d94;fill-rule:nonzero;"/><path d="M27.604,18.093c-0.128,0 -0.256,-0.048 -0.354,-0.146c-0.195,-0.195 -0.195,-0.512 0,-0.707l3.514,-3.518l-3.514,-3.517c-0.195,-0.196 -0.195,-0.512 0,-0.707c0.195,-0.196 0.512,-0.196 0.707,0l3.867,3.871c0.196,0.195 0.196,0.512 0,0.707l-3.867,3.871c-0.098,0.098 -0.226,0.146 -0.353,0.146Z" style="fill:#402d94;fill-rule:nonzero;"/><path d="M14.448,27.233c-0.031,0 -0.064,-0.003 -0.095,-0.009c-0.272,-0.052 -0.449,-0.315 -0.396,-0.586c1.502,-7.773 8.29,-13.416 16.139,-13.416c0.276,0 0.5,0.224 0.5,0.5c0,0.277 -0.224,0.5 -0.5,0.5c-7.371,0 -13.745,5.302 -15.158,12.606c-0.046,0.239 -0.255,0.405 -0.49,0.405Z" style="fill:#402d94;fill-rule:nonzero;"/></g></svg>