<?xml version="1.0" encoding="UTF-8" standalone="no"?><!DOCTYPE svg PUBLIC "-//W3C//DTD SVG 1.1//EN" "http://www.w3.org/Graphics/SVG/1.1/DTD/svg11.dtd"><svg width="100%" height="100%" viewBox="0 0 130 127" version="1.1" xmlns="http://www.w3.org/2000/svg" xmlns:xlink="http://www.w3.org/1999/xlink" xml:space="preserve" xmlns:serif="http://www.serif.com/" style="fill-rule:evenodd;clip-rule:evenodd;stroke-linejoin:round;stroke-miterlimit:1.41421;"><g id="launch-icon"><rect x="0" y="0.667" width="130" height="125.5" style="fill:#fff;"/><clipPath id="_clip1"><rect id="launch-icon1" serif:id="launch-icon" x="12" y="3.917" width="106" height="119"/></clipPath><g clip-path="url(#_clip1)"><g id="launch-icon2" serif:id="launch-icon"><circle cx="58.778" cy="59.914" r="46.762" style="fill:url(#_Linear2);"/><g><path d="M33.786,58.442c-0.27,0 -0.49,-0.218 -0.49,-0.49l0,-2.454c0,-0.272 0.22,-0.49 0.49,-0.49c0.271,0 0.49,0.218 0.49,0.49l0,2.454c0,0.272 -0.219,0.49 -0.49,0.49Z" style="fill:#392a6a;fill-rule:nonzero;"/><path d="M35.014,57.215l-2.456,0c-0.27,0 -0.49,-0.219 -0.49,-0.49c0,-0.271 0.22,-0.49 0.49,-0.49l2.456,0c0.271,0 0.49,0.219 0.49,0.49c0,0.271 -0.219,0.49 -0.49,0.49Z" style="fill:#392a6a;fill-rule:nonzero;"/><path d="M67.012,30.14c-0.271,0 -0.491,-0.219 -0.491,-0.489l0,-2.455c0,-0.271 0.22,-0.49 0.491,-0.49c0.27,0 0.49,0.219 0.49,0.49l0,2.455c0,0.27 -0.22,0.489 -0.49,0.489Z" style="fill:#392a6a;fill-rule:nonzero;"/><path d="M68.239,28.913l-2.455,0c-0.271,0 -0.49,-0.219 -0.49,-0.49c0,-0.271 0.219,-0.49 0.49,-0.49l2.455,0c0.272,0 0.49,0.219 0.49,0.49c0,0.271 -0.218,0.49 -0.49,0.49Z" style="fill:#392a6a;fill-rule:nonzero;"/><path d="M75.013,49.213c-0.271,0 -0.49,-0.219 -0.49,-0.49l0,-2.455c0,-0.27 0.219,-0.49 0.49,-0.49c0.271,0 0.49,0.22 0.49,0.49l0,2.455c0,0.271 -0.219,0.49 -0.49,0.49Z" style="fill:#392a6a;fill-rule:nonzero;"/><path d="M76.241,47.985l-2.456,0c-0.27,0 -0.49,-0.219 -0.49,-0.49c0,-0.27 0.22,-0.489 0.49,-0.489l2.456,0c0.271,0 0.49,0.219 0.49,0.489c0,0.271 -0.219,0.49 -0.49,0.49Z" style="fill:#392a6a;fill-rule:nonzero;"/><path d="M21.169,38.756c-0.271,0 -0.489,-0.22 -0.489,-0.49l0,-2.456c0,-0.271 0.218,-0.49 0.489,-0.49c0.271,0 0.49,0.219 0.49,0.49l0,2.456c0,0.27 -0.219,0.49 -0.49,0.49Z" style="fill:#392a6a;fill-rule:nonzero;"/><path d="M22.398,37.528l-2.456,0c-0.271,0 -0.49,-0.219 -0.49,-0.49c0,-0.271 0.219,-0.489 0.49,-0.489l2.456,0c0.27,0 0.49,0.218 0.49,0.489c0,0.271 -0.22,0.49 -0.49,0.49Z" style="fill:#392a6a;fill-rule:nonzero;"/><path d="M106.393,65.522c-0.272,0 -0.491,-0.219 -0.491,-0.49l0,-2.455c0,-0.271 0.219,-0.49 0.491,-0.49c0.27,0 0.489,0.219 0.489,0.49l0,2.455c0,0.271 -0.219,0.49 -0.489,0.49Z" style="fill:#392a6a;fill-rule:nonzero;"/><path d="M107.62,64.295l-2.456,0c-0.271,0 -0.489,-0.219 -0.489,-0.491c0,-0.27 0.218,-0.49 0.489,-0.49l2.456,0c0.27,0 0.49,0.22 0.49,0.49c0,0.272 -0.22,0.491 -0.49,0.491Z" style="fill:#392a6a;fill-rule:nonzero;"/><path d="M14.398,75.057c-0.27,0 -0.491,-0.219 -0.491,-0.49l0,-2.455c0,-0.271 0.221,-0.49 0.491,-0.49c0.271,0 0.49,0.219 0.49,0.49l0,2.455c0,0.271 -0.219,0.49 -0.49,0.49Z" style="fill:#392a6a;fill-rule:nonzero;"/><path d="M15.625,73.83l-2.455,0c-0.271,0 -0.49,-0.22 -0.49,-0.491c0,-0.271 0.219,-0.49 0.49,-0.49l2.455,0c0.272,0 0.491,0.219 0.491,0.49c0,0.271 -0.219,0.491 -0.491,0.491Z" style="fill:#392a6a;fill-rule:nonzero;"/><path d="M50.208,39.047c5.238,0 9.71,3.26 11.507,7.86c0.544,-1.391 0.846,-2.905 0.846,-4.491c0,-6.823 -5.531,-12.352 -12.353,-12.352c-6.822,0 -12.352,5.529 -12.352,12.352c0,1.585 0.302,3.1 0.846,4.491c1.797,-4.6 6.271,-7.86 11.506,-7.86Z" style="fill:#34ca9d;fill-rule:nonzero;"/><path d="M50.208,38.557c4.898,0 9.261,2.71 11.439,7.002c0.282,-1.021 0.424,-2.073 0.425,-3.143c-0.001,-6.54 -5.323,-11.862 -11.864,-11.862c-3.168,0 -6.147,1.234 -8.388,3.474c-2.239,2.24 -3.473,5.22 -3.473,8.388c0,1.07 0.142,2.122 0.423,3.143c2.179,-4.292 6.541,-7.002 11.438,-7.002Zm11.507,8.84c-0.202,0 -0.384,-0.124 -0.457,-0.311c-1.79,-4.586 -6.128,-7.548 -11.05,-7.549c-4.921,0 -9.258,2.963 -11.049,7.549c-0.074,0.187 -0.255,0.311 -0.457,0.311c-0.201,0 -0.382,-0.123 -0.456,-0.311c-0.584,-1.492 -0.88,-3.063 -0.88,-4.67c0,-3.43 1.336,-6.655 3.762,-9.081c2.425,-2.425 5.65,-3.761 9.08,-3.761c7.082,0 12.842,5.761 12.843,12.842c-0.001,1.607 -0.297,3.178 -0.88,4.67c-0.074,0.188 -0.255,0.311 -0.456,0.311Z" style="fill:#392a6a;fill-rule:nonzero;"/><path d="M53.362,30.472l0,8.99c3.828,1.01 6.93,3.804 8.353,7.445c0.544,-1.391 0.846,-2.905 0.846,-4.491c0,-5.732 -3.905,-10.551 -9.199,-11.944Z" style="fill:#34ca9d;fill-rule:nonzero;"/><path d="M53.852,39.091c3.376,0.998 6.2,3.358 7.793,6.472c0.283,-1.022 0.426,-2.076 0.427,-3.147c-0.001,-5.169 -3.35,-9.723 -8.22,-11.291l0,7.966Zm7.863,8.306c-0.202,0 -0.384,-0.124 -0.457,-0.311c-1.373,-3.515 -4.373,-6.188 -8.021,-7.15c-0.215,-0.056 -0.365,-0.251 -0.365,-0.474l0,-8.99c0,-0.152 0.07,-0.295 0.191,-0.389c0.12,-0.092 0.277,-0.125 0.424,-0.085c5.631,1.482 9.563,6.589 9.564,12.418c-0.001,1.607 -0.297,3.178 -0.88,4.67c-0.074,0.188 -0.255,0.311 -0.456,0.311Z" style="fill:#392a6a;fill-rule:nonzero;"/><path d="M50.208,40.652c1.519,0 2.984,0.238 4.359,0.674c2.041,-4.132 3.273,-9.459 3.273,-15.281c0,-9.249 -3.103,-17.257 -7.632,-21.184c-4.527,3.927 -7.63,11.935 -7.631,21.184c0,5.822 1.233,11.151 3.274,15.281c1.373,-0.436 2.839,-0.674 4.357,-0.674Z" style="fill:#fff;fill-rule:nonzero;"/><path d="M50.208,40.162c1.391,0 2.769,0.193 4.101,0.574c1.962,-4.147 3.041,-9.344 3.041,-14.691c0,-8.639 -2.727,-16.447 -7.142,-20.527c-4.413,4.08 -7.14,11.888 -7.141,20.527c0,5.347 1.079,10.545 3.043,14.691c1.33,-0.381 2.707,-0.574 4.098,-0.574Zm4.359,1.654c-0.05,0 -0.099,-0.008 -0.148,-0.023c-2.723,-0.862 -5.702,-0.862 -8.419,0c-0.233,0.074 -0.482,-0.034 -0.589,-0.25c-2.143,-4.337 -3.324,-9.841 -3.324,-15.498c0.001,-9.122 2.99,-17.382 7.8,-21.555c0.184,-0.159 0.459,-0.159 0.643,0c4.81,4.174 7.799,12.433 7.799,21.555c0,5.655 -1.18,11.16 -3.323,15.498c-0.084,0.171 -0.257,0.273 -0.439,0.273Z" style="fill:#392a6a;fill-rule:nonzero;"/><path d="M50.208,13.616c1.918,0 3.798,0.067 5.633,0.189c-1.347,-3.804 -3.299,-6.919 -5.633,-8.944c-2.334,2.025 -4.285,5.14 -5.632,8.944c1.835,-0.122 3.713,-0.189 5.632,-0.189Z" style="fill:#fcbe12;fill-rule:nonzero;"/><path d="M50.208,5.518c-1.981,1.836 -3.668,4.497 -4.912,7.752c3.296,-0.19 6.533,-0.19 9.826,0c-1.245,-3.255 -2.931,-5.916 -4.914,-7.752Zm-5.632,8.777c-0.153,0 -0.297,-0.071 -0.39,-0.194c-0.1,-0.131 -0.127,-0.304 -0.071,-0.46c1.384,-3.911 3.381,-7.076 5.772,-9.15c0.184,-0.16 0.458,-0.16 0.643,-0.001c2.391,2.075 4.389,5.24 5.773,9.151c0.054,0.156 0.028,0.329 -0.072,0.46c-0.099,0.131 -0.261,0.2 -0.423,0.193c-3.747,-0.249 -7.448,-0.249 -11.199,0c-0.012,0.001 -0.022,0.001 -0.033,0.001Z" style="fill:#392a6a;fill-rule:nonzero;"/><path d="M50.208,29.315c-0.971,1.634 -1.637,4.964 -1.637,8.811c0,3.846 0.666,7.177 1.637,8.811c0.971,-1.634 1.638,-4.965 1.638,-8.811c0,-3.847 -0.666,-7.177 -1.638,-8.811Z" style="fill:#34ca9d;fill-rule:nonzero;"/><path d="M50.208,30.44c-0.708,1.786 -1.146,4.652 -1.146,7.686c0,3.035 0.438,5.9 1.146,7.686c0.71,-1.786 1.148,-4.652 1.148,-7.686c0,-3.034 -0.438,-5.9 -1.148,-7.686Zm0,16.988c-0.172,0 -0.332,-0.092 -0.421,-0.24c-1.052,-1.771 -1.706,-5.244 -1.706,-9.062c0,-3.819 0.654,-7.291 1.706,-9.062c0.176,-0.297 0.667,-0.297 0.842,0c1.053,1.771 1.707,5.243 1.707,9.062c0,3.817 -0.654,7.29 -1.707,9.062c-0.088,0.148 -0.248,0.24 -0.421,0.24Z" style="fill:#392a6a;fill-rule:nonzero;"/><path d="M50.165,29.395l0,17.462c0.015,0.026 0.028,0.055 0.043,0.08c0.971,-1.634 1.638,-4.965 1.638,-8.811c0,-3.847 -0.666,-7.177 -1.638,-8.811c-0.014,0.025 -0.028,0.054 -0.043,0.08Z" style="fill:#34ca9d;fill-rule:nonzero;"/><path d="M50.655,31.839l0,12.574c0.442,-1.72 0.701,-3.954 0.701,-6.287c0,-2.334 -0.259,-4.568 -0.701,-6.287Zm-0.447,15.589l-0.001,0c-0.174,-0.001 -0.334,-0.094 -0.422,-0.243c-0.003,-0.006 -0.029,-0.052 -0.031,-0.058c-0.038,-0.071 -0.08,-0.192 -0.08,-0.27l0,-17.462c0,-0.09 0.025,-0.178 0.07,-0.254c0.002,-0.002 0.034,-0.061 0.036,-0.064c0.086,-0.154 0.246,-0.25 0.421,-0.252c0.184,-0.008 0.339,0.089 0.428,0.239c1.053,1.771 1.707,5.243 1.707,9.062c0,3.817 -0.654,7.29 -1.707,9.062c-0.088,0.148 -0.248,0.24 -0.421,0.24Z" style="fill:#392a6a;fill-rule:nonzero;"/><path d="M50.208,26.045c-2.365,-0.001 -4.289,-1.924 -4.289,-4.288c0,-2.365 1.924,-4.289 4.289,-4.289c2.365,0 4.288,1.924 4.288,4.289c0,2.364 -1.923,4.288 -4.288,4.288Z" style="fill:#34ca9d;fill-rule:nonzero;"/><path d="M50.208,17.958c-2.094,0 -3.799,1.705 -3.799,3.799c0,2.094 1.705,3.797 3.799,3.798c2.095,0 3.798,-1.703 3.798,-3.798c0,-2.094 -1.703,-3.799 -3.798,-3.799Zm0,8.577c-2.634,-0.001 -4.778,-2.144 -4.778,-4.778c0,-2.634 2.144,-4.779 4.778,-4.78c2.635,0 4.778,2.145 4.778,4.78c0,2.635 -2.143,4.778 -4.778,4.778Z" style="fill:#392a6a;fill-rule:nonzero;"/><path d="M50.208,19.144c-1.44,0 -2.612,1.172 -2.612,2.613c0,1.44 1.171,2.611 2.612,2.611c1.441,0 2.613,-1.17 2.613,-2.611c0,-1.44 -1.173,-2.613 -2.613,-2.613Z" style="fill:#cceef5;fill-rule:nonzero;"/><path d="M50.208,19.634c-1.169,0 -2.122,0.953 -2.122,2.123c0,1.17 0.953,2.121 2.122,2.121c1.171,0 2.123,-0.951 2.123,-2.121c0,-1.17 -0.952,-2.123 -2.123,-2.123Zm0,5.225c-1.71,0 -3.102,-1.392 -3.102,-3.102c0,-1.711 1.392,-3.102 3.102,-3.102c1.712,0 3.103,1.391 3.103,3.102c0,1.71 -1.391,3.102 -3.103,3.102Z" style="fill:#392a6a;fill-rule:nonzero;"/><path d="M39.216,86.571c-3.425,0 -6.212,-2.788 -6.212,-6.213l0.981,0c0,2.885 2.347,5.233 5.231,5.233c2.886,0 5.233,-2.347 5.233,-5.232l0,-34.68l0.98,0l0,34.68c0,3.425 -2.787,6.212 -6.213,6.212Z" style="fill:#392a6a;fill-rule:nonzero;"/><path d="M60.935,106.859c-5.914,0 -10.728,-4.812 -10.728,-10.729l0,-42.943l0.981,0l0,42.943c0,5.376 4.373,9.749 9.747,9.749l0,0.98Z" style="fill:#392a6a;fill-rule:nonzero;"/><path d="M74.625,95.478l-0.001,0c-1.099,0 -2.201,-0.092 -3.273,-0.277l0.167,-0.966c1.017,0.175 2.062,0.264 3.106,0.264l0.001,0c4.844,0 9.399,-1.887 12.825,-5.312c3.426,-3.427 5.313,-7.981 5.313,-12.827l0.98,0c0,5.107 -1.988,9.909 -5.6,13.52c-3.61,3.611 -8.412,5.598 -13.518,5.598Z" style="fill:#392a6a;fill-rule:nonzero;"/><path d="M60.977,89.752c-3.53,-3.596 -5.474,-8.353 -5.474,-13.392l0,-32.697l0.98,0l0,32.697c0,4.781 1.845,9.293 5.193,12.706l-0.699,0.686Z" style="fill:#392a6a;fill-rule:nonzero;"/><path d="M74.721,91.188c-8.661,0 -15.707,-7.045 -15.707,-15.706c0,-8.66 7.046,-15.706 15.707,-15.706c8.661,0 15.706,7.046 15.706,15.706l-0.98,0c0,-8.12 -6.606,-14.726 -14.726,-14.726c-8.12,0 -14.726,6.606 -14.726,14.726c0,8.12 6.606,14.727 14.726,14.727l0,0.979Z" style="fill:#392a6a;fill-rule:nonzero;"/><path d="M74.721,86.305c-2.773,0 -5.547,-1.055 -7.657,-3.166l0.693,-0.692c3.839,3.838 10.088,3.838 13.928,0c3.84,-3.841 3.84,-10.09 0,-13.929c-3.84,-3.841 -10.089,-3.841 -13.928,0l-0.693,-0.693c4.221,-4.223 11.091,-4.223 15.314,0c4.222,4.222 4.222,11.092 0,15.314c-2.111,2.111 -4.884,3.166 -7.657,3.166Z" style="fill:#392a6a;fill-rule:nonzero;"/><path d="M27.718,109.331c-0.649,0 -1.302,-0.039 -1.962,-0.122c-8.593,-1.077 -14.709,-8.943 -13.633,-17.536c0.521,-4.163 2.632,-7.873 5.944,-10.448c3.312,-2.575 7.429,-3.706 11.591,-3.184l-0.122,0.972c-3.902,-0.488 -7.761,0.572 -10.868,2.986c-3.105,2.413 -5.085,5.892 -5.573,9.795c-1.009,8.058 4.726,15.433 12.783,16.442c8.062,1.007 15.433,-4.726 16.441,-12.783l0.973,0.121c-0.994,7.935 -7.777,13.757 -15.574,13.757Z" style="fill:#392a6a;fill-rule:nonzero;"/><path d="M27.712,104.984c-0.468,0 -0.94,-0.029 -1.416,-0.088c-6.215,-0.78 -10.638,-6.468 -9.86,-12.683c0.377,-3.01 1.904,-5.694 4.299,-7.557c2.396,-1.862 5.373,-2.681 8.382,-2.303l-0.121,0.973c-2.749,-0.347 -5.471,0.403 -7.66,2.105c-2.188,1.701 -3.583,4.153 -3.927,6.904c-0.711,5.678 3.331,10.877 9.009,11.588c5.682,0.71 10.876,-3.332 11.587,-9.01l0.972,0.122c-0.718,5.737 -5.623,9.949 -11.265,9.949Z" style="fill:#392a6a;fill-rule:nonzero;"/><path d="M38.72,89.436c-1.25,0 -2.49,-0.296 -3.635,-0.882c-1.902,-0.973 -3.313,-2.629 -3.97,-4.663c-0.657,-2.034 -0.482,-4.201 0.491,-6.103c0.975,-1.903 2.631,-3.313 4.664,-3.97c2.034,-0.657 4.202,-0.482 6.103,0.492l-0.446,0.873c-1.669,-0.855 -3.572,-1.008 -5.356,-0.432c-1.784,0.576 -3.237,1.813 -4.091,3.483c-0.855,1.669 -1.008,3.572 -0.432,5.356c0.577,1.784 1.814,3.237 3.483,4.091c1.67,0.854 3.57,1.008 5.356,0.431c1.785,-0.577 3.237,-1.813 4.091,-3.483l0.873,0.446c-0.973,1.903 -2.629,3.313 -4.663,3.97c-0.81,0.261 -1.64,0.391 -2.468,0.391Z" style="fill:#392a6a;fill-rule:nonzero;"/><path d="M91.363,105.244c-4.414,0 -8.006,-3.591 -8.006,-8.006l0.981,0c0,3.875 3.151,7.027 7.025,7.027c3.874,0 7.026,-3.152 7.026,-7.027l0.98,0c0,4.415 -3.592,8.006 -8.006,8.006Z" style="fill:#392a6a;fill-rule:nonzero;"/><path d="M92.015,109.007c-1.071,0 -2.146,-0.168 -3.194,-0.506c-2.631,-0.851 -4.775,-2.675 -6.035,-5.138l0.873,-0.445c1.14,2.229 3.081,3.881 5.463,4.65c2.385,0.77 4.923,0.565 7.152,-0.575c2.229,-1.141 3.881,-3.082 4.65,-5.464c0.77,-2.382 0.567,-4.922 -0.574,-7.153c-2.356,-4.601 -8.017,-6.43 -12.617,-4.074l-0.446,-0.872c5.083,-2.601 11.333,-0.582 13.935,4.5c1.259,2.463 1.485,5.269 0.635,7.9c-0.85,2.632 -2.674,4.775 -5.137,6.035c-1.481,0.758 -3.087,1.142 -4.705,1.142Z" style="fill:#392a6a;fill-rule:nonzero;"/><path d="M62.041,111.893c-2.37,0 -4.76,-0.728 -6.809,-2.237l0.581,-0.79c4.673,3.443 11.278,2.44 14.721,-2.233c3.441,-4.674 2.439,-11.277 -2.235,-14.72c-4.673,-3.441 -11.278,-2.438 -14.72,2.235l-0.789,-0.582c3.762,-5.108 10.981,-6.204 16.09,-2.442c5.11,3.764 6.205,10.981 2.442,16.09c-2.253,3.058 -5.745,4.679 -9.281,4.679Z" style="fill:#392a6a;fill-rule:nonzero;"/></g></g></g></g><defs><linearGradient id="_Linear2" x1="0" y1="0" x2="1" y2="0" gradientUnits="userSpaceOnUse" gradientTransform="matrix(142.488,15.4286,-15.4286,142.488,-21.4344,53.7582)"><stop offset="0" style="stop-color:#925ecd;stop-opacity:1"/><stop offset="1" style="stop-color:#6032d4;stop-opacity:1"/></linearGradient></defs></svg>