<?xml version="1.0" encoding="UTF-8" standalone="no"?><!DOCTYPE svg PUBLIC "-//W3C//DTD SVG 1.1//EN" "http://www.w3.org/Graphics/SVG/1.1/DTD/svg11.dtd"><svg width="100%" height="100%" viewBox="0 0 130 127" version="1.1" xmlns="http://www.w3.org/2000/svg" xmlns:xlink="http://www.w3.org/1999/xlink" xml:space="preserve" xmlns:serif="http://www.serif.com/" style="fill-rule:evenodd;clip-rule:evenodd;stroke-linejoin:round;stroke-miterlimit:1.41421;"><g id="submit-icon"><rect x="0" y="0.667" width="130" height="125.5" style="fill:#fff;"/><g id="submit-icon1" serif:id="submit-icon"><circle cx="65.046" cy="63.416" r="46.762" style="fill:url(#_Linear1);"/><path d="M17.523,97.623l97.537,0l0,-60.407c0,-1.365 -1.104,-2.488 -2.482,-2.488l-95.055,0c-1.38,0 -2.491,1.123 -2.491,2.488l0,60.407l2.491,0Z" style="fill:#f1fafc;fill-rule:nonzero;"/><path d="M15.563,97.092l98.966,0l0,-59.876c0,-1.079 -0.875,-1.957 -1.951,-1.957l-95.055,0c-1.081,0 -1.96,0.878 -1.96,1.957l0,59.876Zm99.497,1.062l-100.028,0c-0.294,0 -0.531,-0.237 -0.531,-0.531l0,-60.407c0,-1.665 1.355,-3.019 3.022,-3.019l95.055,0c1.662,0 3.014,1.354 3.014,3.019l0,60.407c0,0.294 -0.238,0.531 -0.532,0.531Z" style="fill:#392a6a;fill-rule:nonzero;"/><rect x="21.235" y="40.713" width="87.632" height="50.787" style="fill:#cceef5;"/><path d="M21.766,90.969l86.57,0l0,-49.725l-86.57,0l0,49.725Zm87.101,1.062l-87.632,0c-0.294,0 -0.532,-0.237 -0.532,-0.531l0,-50.787c0,-0.293 0.238,-0.531 0.532,-0.531l87.632,0c0.293,0 0.531,0.238 0.531,0.531l0,50.787c0,0.294 -0.238,0.531 -0.531,0.531Z" style="fill:#392a6a;fill-rule:nonzero;"/><rect x="21.235" y="40.713" width="43.272" height="50.787" style="fill:#fff;"/><path d="M21.766,90.969l42.209,0l0,-49.725l-42.209,0l0,49.725Zm42.74,1.062l-43.271,0c-0.294,0 -0.532,-0.237 -0.532,-0.531l0,-50.787c0,-0.293 0.238,-0.531 0.532,-0.531l43.271,0c0.294,0 0.532,0.238 0.532,0.531l0,50.787c0,0.294 -0.238,0.531 -0.532,0.531Z" style="fill:#392a6a;fill-rule:nonzero;"/><rect x="64.532" y="40.713" width="44.335" height="5.974" style="fill:#fcbe12;"/><path d="M65.064,46.156l43.272,0l0,-4.912l-43.272,0l0,4.912Zm43.803,1.062l-44.335,0c-0.293,0 -0.531,-0.237 -0.531,-0.531l0,-5.974c0,-0.293 0.238,-0.531 0.531,-0.531l44.335,0c0.293,0 0.531,0.238 0.531,0.531l0,5.974c0,0.294 -0.238,0.531 -0.531,0.531Z" style="fill:#392a6a;fill-rule:nonzero;"/><rect x="68.073" y="50.273" width="37.254" height="12.701" style="fill:#34ca9d;"/><path d="M68.604,62.442l36.192,0l0,-11.638l-36.192,0l0,11.638Zm36.723,1.062l-37.254,0c-0.294,0 -0.531,-0.237 -0.531,-0.531l0,-12.7c0,-0.294 0.237,-0.531 0.531,-0.531l37.254,0c0.293,0 0.531,0.237 0.531,0.531l0,12.7c0,0.294 -0.238,0.531 -0.531,0.531Z" style="fill:#392a6a;fill-rule:nonzero;"/><path d="M124.287,97.922l-40.998,0c-0.09,0.844 -0.769,1.515 -1.632,1.515l-33.217,0c-0.859,0 -1.54,-0.671 -1.628,-1.515l-41,0c-0.016,0.2 -0.063,0.392 -0.063,0.599l0,1.804c0,2.977 2.409,3.152 5.399,3.152l107.805,0c2.969,0 5.4,-0.175 5.4,-3.152l0,-1.804c0,-0.207 -0.048,-0.399 -0.066,-0.599Z" style="fill:#f1fafc;fill-rule:nonzero;"/><path d="M6.282,98.453c-0.001,0.022 -0.002,0.045 -0.002,0.068l0,1.804c0,2.257 1.435,2.621 4.868,2.621l107.805,0c3.434,0 4.869,-0.364 4.869,-2.621l0,-1.804c0,-0.023 -0.002,-0.046 -0.003,-0.068l-40.104,0c-0.293,0.889 -1.109,1.515 -2.058,1.515l-33.217,0c-0.949,0 -1.764,-0.625 -2.055,-1.515l-40.103,0Zm112.671,5.555l-107.805,0c-2.503,0 -5.93,0 -5.93,-3.683l0,-1.804c0,-0.151 0.018,-0.294 0.039,-0.437c0.01,-0.067 0.02,-0.135 0.025,-0.203c0.021,-0.277 0.252,-0.49 0.53,-0.49l41,0c0.272,0 0.5,0.205 0.528,0.476c0.062,0.592 0.535,1.039 1.1,1.039l33.217,0c0.566,0 1.04,-0.448 1.104,-1.041c0.029,-0.27 0.257,-0.474 0.528,-0.474l40.998,0c0.274,0 0.503,0.208 0.529,0.481c0.006,0.066 0.015,0.13 0.025,0.195c0.023,0.149 0.043,0.298 0.043,0.454l0,1.804c0,3.683 -3.428,3.683 -5.931,3.683Z" style="fill:#392a6a;fill-rule:nonzero;"/><rect x="24.75" y="46.976" width="12.569" height="1.062" style="fill:#392a6a;"/><rect x="30.858" y="49.277" width="17.484" height="1.062" style="fill:#392a6a;"/><rect x="30.858" y="51.578" width="15.755" height="1.062" style="fill:#392a6a;"/><rect x="30.858" y="53.879" width="12.569" height="1.062" style="fill:#392a6a;"/><rect x="24.75" y="72.998" width="12.569" height="1.062" style="fill:#392a6a;"/><rect x="30.858" y="75.3" width="32.089" height="1.062" style="fill:#392a6a;"/><rect x="30.858" y="77.601" width="28.41" height="1.062" style="fill:#392a6a;"/><rect x="34.044" y="79.902" width="12.569" height="1.062" style="fill:#392a6a;"/><rect x="24.75" y="60.518" width="12.569" height="1.062" style="fill:#392a6a;"/><rect x="30.858" y="62.819" width="27.412" height="1.062" style="fill:#392a6a;"/><rect x="30.858" y="65.12" width="25.683" height="1.062" style="fill:#392a6a;"/><rect x="30.858" y="67.422" width="12.569" height="1.062" style="fill:#392a6a;"/><rect x="68.073" y="73.836" width="11.68" height="1.062" style="fill:#392a6a;"/><rect x="68.073" y="76.528" width="11.68" height="1.062" style="fill:#392a6a;"/><rect x="68.073" y="79.22" width="11.68" height="1.062" style="fill:#392a6a;"/><rect x="68.073" y="81.913" width="11.68" height="1.062" style="fill:#392a6a;"/><path d="M76.391,68.993c0,1.369 -1.11,2.478 -2.479,2.478c-1.368,0 -2.478,-1.109 -2.478,-2.478c0,-1.369 1.11,-2.478 2.478,-2.478c1.369,0 2.479,1.109 2.479,2.478Z" style="fill:#cceef5;fill-rule:nonzero;"/><path d="M73.912,67.046c-1.073,0 -1.947,0.873 -1.947,1.947c0,1.073 0.874,1.947 1.947,1.947c1.075,0 1.948,-0.874 1.948,-1.947c0,-1.074 -0.873,-1.947 -1.948,-1.947Zm0,4.956c-1.659,0 -3.009,-1.35 -3.009,-3.009c0,-1.66 1.35,-3.01 3.009,-3.01c1.66,0 3.01,1.35 3.01,3.01c0,1.659 -1.35,3.009 -3.01,3.009Z" style="fill:#392a6a;fill-rule:nonzero;"/><rect x="70.461" y="84.925" width="6.903" height="2.479" style="fill:#fcbe12;"/><path d="M70.992,86.872l5.841,0l0,-1.416l-5.841,0l0,1.416Zm6.372,1.062l-6.903,0c-0.293,0 -0.531,-0.237 -0.531,-0.531l0,-2.478c0,-0.294 0.238,-0.531 0.531,-0.531l6.903,0c0.294,0 0.532,0.237 0.532,0.531l0,2.478c0,0.294 -0.238,0.531 -0.532,0.531Z" style="fill:#2c5871;fill-rule:nonzero;"/><rect x="80.86" y="73.836" width="11.68" height="1.062" style="fill:#392a6a;"/><rect x="80.86" y="76.528" width="11.68" height="1.062" style="fill:#392a6a;"/><rect x="80.86" y="79.22" width="11.68" height="1.062" style="fill:#392a6a;"/><rect x="80.86" y="81.913" width="11.68" height="1.062" style="fill:#392a6a;"/><path d="M89.178,68.993c0,1.369 -1.109,2.478 -2.479,2.478c-1.368,0 -2.478,-1.109 -2.478,-2.478c0,-1.369 1.11,-2.478 2.478,-2.478c1.37,0 2.479,1.109 2.479,2.478Z" style="fill:#cceef5;fill-rule:nonzero;"/><path d="M86.699,67.046c-1.073,0 -1.946,0.873 -1.946,1.947c0,1.073 0.873,1.947 1.946,1.947c1.074,0 1.948,-0.874 1.948,-1.947c0,-1.074 -0.874,-1.947 -1.948,-1.947Zm0,4.956c-1.659,0 -3.009,-1.35 -3.009,-3.009c0,-1.66 1.35,-3.01 3.009,-3.01c1.66,0 3.01,1.35 3.01,3.01c0,1.659 -1.35,3.009 -3.01,3.009Z" style="fill:#392a6a;fill-rule:nonzero;"/><rect x="83.248" y="84.925" width="6.904" height="2.479" style="fill:#fcbe12;"/><path d="M83.779,86.872l5.841,0l0,-1.416l-5.841,0l0,1.416Zm6.372,1.062l-6.903,0c-0.294,0 -0.532,-0.237 -0.532,-0.531l0,-2.478c0,-0.294 0.238,-0.531 0.532,-0.531l6.903,0c0.294,0 0.532,0.237 0.532,0.531l0,2.478c0,0.294 -0.238,0.531 -0.532,0.531Z" style="fill:#2c5871;fill-rule:nonzero;"/><rect x="93.647" y="73.836" width="11.68" height="1.062" style="fill:#392a6a;"/><rect x="93.647" y="76.528" width="11.68" height="1.062" style="fill:#392a6a;"/><rect x="93.647" y="79.22" width="11.68" height="1.062" style="fill:#392a6a;"/><rect x="93.647" y="81.913" width="11.68" height="1.062" style="fill:#392a6a;"/><path d="M101.965,68.993c0,1.369 -1.11,2.478 -2.478,2.478c-1.369,0 -2.478,-1.109 -2.478,-2.478c0,-1.369 1.109,-2.478 2.478,-2.478c1.368,0 2.478,1.109 2.478,2.478Z" style="fill:#cceef5;fill-rule:nonzero;"/><path d="M99.487,67.046c-1.074,0 -1.947,0.873 -1.947,1.947c0,1.073 0.873,1.947 1.947,1.947c1.074,0 1.947,-0.874 1.947,-1.947c0,-1.074 -0.873,-1.947 -1.947,-1.947Zm0,4.956c-1.659,0 -3.009,-1.35 -3.009,-3.009c0,-1.66 1.35,-3.01 3.009,-3.01c1.659,0 3.009,1.35 3.009,3.01c0,1.659 -1.35,3.009 -3.009,3.009Z" style="fill:#392a6a;fill-rule:nonzero;"/><rect x="96.035" y="84.925" width="6.904" height="2.479" style="fill:#fcbe12;"/><path d="M96.566,86.872l5.842,0l0,-1.416l-5.842,0l0,1.416Zm6.373,1.062l-6.904,0c-0.293,0 -0.531,-0.237 -0.531,-0.531l0,-2.478c0,-0.294 0.238,-0.531 0.531,-0.531l6.904,0c0.293,0 0.531,0.237 0.531,0.531l0,2.478c0,0.294 -0.238,0.531 -0.531,0.531Z" style="fill:#2c5871;fill-rule:nonzero;"/><rect x="67.604" y="43.324" width="7.966" height="1.062" style="fill:#392a6a;"/><rect x="77.523" y="43.324" width="7.966" height="1.062" style="fill:#392a6a;"/><rect x="87.442" y="43.324" width="7.966" height="1.062" style="fill:#392a6a;"/><rect x="97.361" y="43.324" width="7.966" height="1.062" style="fill:#392a6a;"/></g></g><defs><linearGradient id="_Linear1" x1="0" y1="0" x2="1" y2="0" gradientUnits="userSpaceOnUse" gradientTransform="matrix(142.488,15.4286,-15.4286,142.488,-15.1665,57.26)"><stop offset="0" style="stop-color:#925ecd;stop-opacity:1"/><stop offset="1" style="stop-color:#6032d4;stop-opacity:1"/></linearGradient></defs></svg>