<?xml version="1.0" encoding="UTF-8" standalone="no"?><!DOCTYPE svg PUBLIC "-//W3C//DTD SVG 1.1//EN" "http://www.w3.org/Graphics/SVG/1.1/DTD/svg11.dtd"><svg width="100%" height="100%" viewBox="0 0 45 46" version="1.1" xmlns="http://www.w3.org/2000/svg" xmlns:xlink="http://www.w3.org/1999/xlink" xml:space="preserve" xmlns:serif="http://www.serif.com/" style="fill-rule:evenodd;clip-rule:evenodd;stroke-linejoin:round;stroke-miterlimit:1.41421;"><g id="time-icon-line"><path d="M22.5,1.324c-11.855,0 -21.5,9.645 -21.5,21.5c0,11.855 9.645,21.5 21.5,21.5c11.856,0 21.5,-9.645 21.5,-21.5c0,-11.855 -9.644,-21.5 -21.5,-21.5Zm0,44c-12.406,0 -22.5,-10.093 -22.5,-22.5c0,-12.407 10.094,-22.5 22.5,-22.5c12.407,0 22.5,10.093 22.5,22.5c0,12.407 -10.093,22.5 -22.5,22.5Z" style="fill:#402d94;fill-rule:nonzero;"/><path d="M22.502,12.657c-5.606,0 -10.168,4.562 -10.168,10.167c0,5.606 4.562,10.166 10.168,10.166c5.605,0 10.164,-4.56 10.164,-10.166c0,-5.605 -4.559,-10.167 -10.164,-10.167Zm0,21.333c-6.158,0 -11.168,-5.009 -11.168,-11.166c0,-6.157 5.01,-11.167 11.168,-11.167c6.157,0 11.164,5.01 11.164,11.167c0,6.157 -5.007,11.166 -11.164,11.166Z" style="fill:#402d94;fill-rule:nonzero;"/><path d="M22.502,23.324c-0.276,0 -0.5,-0.223 -0.5,-0.5l0,-6.902c0,-0.276 0.224,-0.5 0.5,-0.5c0.277,0 0.5,0.224 0.5,0.5l0,6.902c0,0.277 -0.223,0.5 -0.5,0.5Z" style="fill:#402d94;fill-rule:nonzero;"/><path d="M26.641,16.106c-0.077,0 -0.156,-0.02 -0.228,-0.061c-0.217,-0.126 -0.293,-0.404 -0.167,-0.622l0.268,-0.464c0.125,-0.217 0.405,-0.292 0.622,-0.167c0.218,0.125 0.293,0.405 0.167,0.622l-0.267,0.464c-0.084,0.146 -0.238,0.228 -0.395,0.228Z" style="fill:#402d94;fill-rule:nonzero;"/><path d="M18.09,30.919c-0.077,0 -0.154,-0.02 -0.225,-0.06c-0.219,-0.125 -0.295,-0.404 -0.17,-0.622l0.265,-0.466c0.126,-0.218 0.405,-0.291 0.621,-0.169c0.219,0.125 0.295,0.404 0.17,0.622l-0.265,0.464c-0.084,0.148 -0.239,0.231 -0.396,0.231Z" style="fill:#402d94;fill-rule:nonzero;"/><path d="M30.137,27.688c-0.077,0 -0.155,-0.021 -0.227,-0.061l-0.461,-0.265c-0.218,-0.126 -0.293,-0.404 -0.167,-0.622c0.126,-0.219 0.402,-0.292 0.622,-0.167l0.461,0.265c0.217,0.126 0.293,0.404 0.167,0.622c-0.084,0.146 -0.238,0.228 -0.395,0.228Z" style="fill:#402d94;fill-rule:nonzero;"/><path d="M15.328,19.137c-0.077,0 -0.155,-0.019 -0.226,-0.061l-0.465,-0.266c-0.218,-0.125 -0.294,-0.403 -0.168,-0.622c0.125,-0.219 0.404,-0.292 0.621,-0.168l0.465,0.267c0.218,0.125 0.294,0.403 0.168,0.621c-0.084,0.147 -0.237,0.229 -0.395,0.229Z" style="fill:#402d94;fill-rule:nonzero;"/><path d="M18.36,16.106c-0.157,0 -0.311,-0.082 -0.395,-0.228l-0.267,-0.464c-0.126,-0.217 -0.051,-0.497 0.167,-0.622c0.215,-0.125 0.496,-0.052 0.622,0.167l0.267,0.464c0.126,0.218 0.051,0.496 -0.167,0.622c-0.071,0.041 -0.15,0.061 -0.227,0.061Z" style="fill:#402d94;fill-rule:nonzero;"/><path d="M26.914,30.919c-0.156,0 -0.308,-0.081 -0.393,-0.226l-0.272,-0.466c-0.126,-0.216 -0.052,-0.495 0.164,-0.622c0.216,-0.128 0.496,-0.055 0.623,0.164l0.272,0.465c0.126,0.216 0.053,0.495 -0.164,0.622c-0.072,0.043 -0.151,0.063 -0.23,0.063Z" style="fill:#402d94;fill-rule:nonzero;"/><path d="M14.864,27.688c-0.158,0 -0.312,-0.082 -0.396,-0.229c-0.125,-0.219 -0.049,-0.497 0.17,-0.622l0.465,-0.265c0.215,-0.124 0.495,-0.051 0.621,0.168c0.125,0.22 0.049,0.498 -0.17,0.623l-0.465,0.265c-0.071,0.041 -0.148,0.06 -0.225,0.06Z" style="fill:#402d94;fill-rule:nonzero;"/><path d="M29.676,19.137c-0.157,0 -0.309,-0.082 -0.394,-0.227c-0.125,-0.218 -0.051,-0.496 0.167,-0.623l0.461,-0.266c0.213,-0.125 0.494,-0.052 0.622,0.166c0.125,0.217 0.05,0.496 -0.167,0.622l-0.461,0.267c-0.072,0.041 -0.15,0.061 -0.228,0.061Z" style="fill:#402d94;fill-rule:nonzero;"/><path d="M14.217,23.279l-0.001,0l-0.535,-0.001c-0.251,-0.001 -0.455,-0.205 -0.454,-0.456c0,-0.251 0.204,-0.455 0.455,-0.455l0.536,0.001c0.251,0.001 0.455,0.205 0.454,0.456c0,0.251 -0.204,0.455 -0.455,0.455Z" style="fill:#402d94;fill-rule:nonzero;"/><path d="M30.784,23.279c-0.251,0 -0.455,-0.203 -0.456,-0.454c0,-0.252 0.203,-0.456 0.454,-0.457l0.539,-0.003c0.001,0 0.001,0 0.002,0c0.251,0 0.454,0.203 0.455,0.455c0.001,0.252 -0.202,0.456 -0.453,0.457l-0.539,0.002c-0.001,0 -0.001,0 -0.002,0Z" style="fill:#402d94;fill-rule:nonzero;"/><path d="M22.498,32.098c-0.001,0 -0.002,0 -0.003,0c-0.251,-0.002 -0.454,-0.207 -0.452,-0.459l0.004,-0.537c0.002,-0.25 0.205,-0.451 0.455,-0.451c0.001,0 0.002,0 0.003,0c0.252,0.001 0.454,0.206 0.452,0.458l-0.004,0.537c-0.001,0.25 -0.205,0.452 -0.455,0.452Z" style="fill:#402d94;fill-rule:nonzero;"/><path d="M22.5,14.994c-0.251,0 -0.455,-0.203 -0.455,-0.455l0,-0.533c0,-0.251 0.204,-0.456 0.455,-0.456c0.251,0 0.455,0.205 0.455,0.456l0,0.533c0,0.252 -0.204,0.455 -0.455,0.455Z" style="fill:#402d94;fill-rule:nonzero;"/><path d="M19.481,26.344c-0.128,0 -0.256,-0.048 -0.354,-0.146c-0.195,-0.195 -0.195,-0.511 0,-0.708l2.903,-2.901c0.195,-0.195 0.511,-0.195 0.707,0c0.195,0.195 0.195,0.512 0,0.707l-2.903,2.902c-0.097,0.098 -0.225,0.146 -0.353,0.146Z" style="fill:#402d94;fill-rule:nonzero;"/></g></svg>